<svg width="220" height="325" viewBox="0 0 220 325" fill="none" xmlns="http://www.w3.org/2000/svg">
<path d="M55.9921 35.2739C55.6579 35.2739 55.357 35.158 55.0897 34.9261C54.8557 34.6943 54.7387 34.3962 54.7387 34.0318V9.34013L47.5193 14.8548C47.2185 15.0866 46.901 15.1694 46.5667 15.1032C46.2659 15.0369 45.9985 14.8548 45.7646 14.5567L43.2578 11.3274C43.0573 11.0293 42.9737 10.7146 43.0072 10.3834C43.074 10.0522 43.2578 9.78726 43.5586 9.58854L54.9894 0.844587C55.1899 0.712103 55.3738 0.6293 55.5409 0.59618C55.7414 0.529936 55.9587 0.496815 56.1926 0.496815H61.5069C61.8412 0.496815 62.1253 0.612739 62.3592 0.844587C62.5932 1.07643 62.7102 1.37452 62.7102 1.73885V34.0318C62.7102 34.3962 62.5932 34.6943 62.3592 34.9261C62.1253 35.158 61.8412 35.2739 61.5069 35.2739H55.9921Z" fill="#F0D800"/>
<path d="M68.9026 39C68.6352 39 68.4012 38.8841 68.2007 38.6522C68.0336 38.4535 67.9667 38.2051 68.0002 37.907L69.4039 28.865C69.4708 28.4344 69.6379 28.0535 69.9053 27.7223C70.1727 27.3911 70.5738 27.2255 71.1085 27.2255H76.3226C76.5899 27.2255 76.8072 27.3248 76.9743 27.5236C77.1748 27.6892 77.2751 27.9045 77.2751 28.1694C77.2751 28.3682 77.2417 28.5669 77.1748 28.7656L73.6654 37.6586C73.5317 37.9898 73.3312 38.2879 73.0638 38.5529C72.8298 38.851 72.4455 39 71.9107 39H68.9026Z" fill="#F0D800"/>
<path d="M96.0103 35.7707C93.6038 35.7707 91.5316 35.4395 89.7936 34.7771C88.089 34.0815 86.6685 33.1376 85.5321 31.9452C84.4291 30.7197 83.5935 29.3121 83.0253 27.7223C82.4906 26.0994 82.1731 24.3771 82.0728 22.5554C82.0394 21.6611 82.0059 20.6675 81.9725 19.5745C81.9725 18.4484 81.9725 17.3223 81.9725 16.1962C82.0059 15.0701 82.0394 14.0433 82.0728 13.1159C82.1396 11.2943 82.4572 9.58853 83.0253 7.99873C83.627 6.40892 84.496 5.01784 85.6324 3.82548C86.7688 2.63312 88.1892 1.70573 89.8938 1.04331C91.6318 0.347771 93.6706 0 96.0103 0C98.3499 0 100.372 0.347771 102.077 1.04331C103.781 1.70573 105.202 2.63312 106.338 3.82548C107.474 5.01784 108.327 6.40892 108.895 7.99873C109.497 9.58853 109.847 11.2943 109.948 13.1159C109.981 14.0433 109.998 15.0701 109.998 16.1962C110.031 17.3223 110.031 18.4484 109.998 19.5745C109.998 20.6675 109.981 21.6611 109.948 22.5554C109.847 24.3771 109.513 26.0994 108.945 27.7223C108.377 29.3121 107.525 30.7197 106.388 31.9452C105.285 33.1376 103.865 34.0815 102.127 34.7771C100.422 35.4395 98.3833 35.7707 96.0103 35.7707ZM96.0103 29.3121C97.9488 29.3121 99.3693 28.6828 100.272 27.4242C101.174 26.1656 101.659 24.4599 101.726 22.307C101.759 21.3465 101.776 20.3529 101.776 19.3261C101.809 18.2994 101.809 17.2726 101.776 16.2459C101.776 15.2191 101.759 14.2586 101.726 13.3643C101.659 11.3108 101.174 9.63822 100.272 8.3465C99.3693 7.05478 97.9488 6.39236 96.0103 6.35924C94.0383 6.39236 92.6011 7.05478 91.6987 8.3465C90.8297 9.63822 90.3617 11.3108 90.2949 13.3643C90.2615 14.2586 90.2281 15.2191 90.1946 16.2459C90.1946 17.2726 90.1946 18.2994 90.1946 19.3261C90.2281 20.3529 90.2615 21.3465 90.2949 22.307C90.3617 24.4599 90.8464 26.1656 91.7488 27.4242C92.6512 28.6828 94.0717 29.3121 96.0103 29.3121Z" fill="#F0D800"/>
<path d="M129.499 35.7707C127.092 35.7707 125.02 35.4395 123.282 34.7771C121.577 34.0815 120.157 33.1376 119.021 31.9452C117.918 30.7197 117.082 29.3121 116.514 27.7223C115.979 26.0994 115.662 24.3771 115.561 22.5554C115.528 21.6611 115.494 20.6675 115.461 19.5745C115.461 18.4484 115.461 17.3223 115.461 16.1962C115.494 15.0701 115.528 14.0433 115.561 13.1159C115.628 11.2943 115.946 9.58853 116.514 7.99873C117.115 6.40892 117.984 5.01784 119.121 3.82548C120.257 2.63312 121.678 1.70573 123.382 1.04331C125.12 0.347771 127.159 0 129.499 0C131.838 0 133.861 0.347771 135.565 1.04331C137.27 1.70573 138.69 2.63312 139.827 3.82548C140.963 5.01784 141.815 6.40892 142.383 7.99873C142.985 9.58853 143.336 11.2943 143.436 13.1159C143.47 14.0433 143.486 15.0701 143.486 16.1962C143.52 17.3223 143.52 18.4484 143.486 19.5745C143.486 20.6675 143.47 21.6611 143.436 22.5554C143.336 24.3771 143.002 26.0994 142.434 27.7223C141.865 29.3121 141.013 30.7197 139.877 31.9452C138.774 33.1376 137.353 34.0815 135.615 34.7771C133.911 35.4395 131.872 35.7707 129.499 35.7707ZM129.499 29.3121C131.437 29.3121 132.858 28.6828 133.76 27.4242C134.663 26.1656 135.147 24.4599 135.214 22.307C135.248 21.3465 135.264 20.3529 135.264 19.3261C135.298 18.2994 135.298 17.2726 135.264 16.2459C135.264 15.2191 135.248 14.2586 135.214 13.3643C135.147 11.3108 134.663 9.63822 133.76 8.3465C132.858 7.05478 131.437 6.39236 129.499 6.35924C127.527 6.39236 126.09 7.05478 125.187 8.3465C124.318 9.63822 123.85 11.3108 123.783 13.3643C123.75 14.2586 123.717 15.2191 123.683 16.2459C123.683 17.2726 123.683 18.2994 123.683 19.3261C123.717 20.3529 123.75 21.3465 123.783 22.307C123.85 24.4599 124.335 26.1656 125.237 27.4242C126.14 28.6828 127.56 29.3121 129.499 29.3121Z" fill="#F0D800"/>
<path d="M162.987 35.7707C160.581 35.7707 158.509 35.4395 156.771 34.7771C155.066 34.0815 153.646 33.1376 152.509 31.9452C151.406 30.7197 150.571 29.3121 150.002 27.7223C149.468 26.0994 149.15 24.3771 149.05 22.5554C149.016 21.6611 148.983 20.6675 148.95 19.5745C148.95 18.4484 148.95 17.3223 148.95 16.1962C148.983 15.0701 149.016 14.0433 149.05 13.1159C149.117 11.2943 149.434 9.58853 150.002 7.99873C150.604 6.40892 151.473 5.01784 152.609 3.82548C153.746 2.63312 155.166 1.70573 156.871 1.04331C158.609 0.347771 160.648 0 162.987 0C165.327 0 167.349 0.347771 169.054 1.04331C170.758 1.70573 172.179 2.63312 173.315 3.82548C174.451 5.01784 175.304 6.40892 175.872 7.99873C176.474 9.58853 176.825 11.2943 176.925 13.1159C176.958 14.0433 176.975 15.0701 176.975 16.1962C177.008 17.3223 177.008 18.4484 176.975 19.5745C176.975 20.6675 176.958 21.6611 176.925 22.5554C176.825 24.3771 176.49 26.0994 175.922 27.7223C175.354 29.3121 174.502 30.7197 173.365 31.9452C172.262 33.1376 170.842 34.0815 169.104 34.7771C167.399 35.4395 165.36 35.7707 162.987 35.7707ZM162.987 29.3121C164.926 29.3121 166.346 28.6828 167.249 27.4242C168.151 26.1656 168.636 24.4599 168.703 22.307C168.736 21.3465 168.753 20.3529 168.753 19.3261C168.786 18.2994 168.786 17.2726 168.753 16.2459C168.753 15.2191 168.736 14.2586 168.703 13.3643C168.636 11.3108 168.151 9.63822 167.249 8.3465C166.346 7.05478 164.926 6.39236 162.987 6.35924C161.015 6.39236 159.578 7.05478 158.676 8.3465C157.807 9.63822 157.339 11.3108 157.272 13.3643C157.239 14.2586 157.205 15.2191 157.172 16.2459C157.172 17.2726 157.172 18.2994 157.172 19.3261C157.205 20.3529 157.239 21.3465 157.272 22.307C157.339 24.4599 157.823 26.1656 158.726 27.4242C159.628 28.6828 161.049 29.3121 162.987 29.3121Z" fill="#F0D800"/>
<path d="M44.345 71.6186C44.235 71.6186 44.15 71.5879 44.09 71.5264C44.03 71.4547 44 71.3676 44 71.2651V61.2286C44 61.1159 44.03 61.0288 44.09 60.9673C44.15 60.8956 44.235 60.8598 44.345 60.8598H45.0949C45.2049 60.8598 45.2899 60.8956 45.3499 60.9673C45.4199 61.0288 45.4549 61.1159 45.4549 61.2286V65.0403L49.4595 61.1057C49.4995 61.0647 49.5645 61.0134 49.6545 60.952C49.7545 60.8905 49.8844 60.8598 50.0444 60.8598H50.8544C50.9344 60.8598 51.0043 60.8905 51.0643 60.952C51.1243 61.0134 51.1543 61.0852 51.1543 61.1671C51.1543 61.2491 51.1343 61.3157 51.0943 61.367L46.4598 66.0086L51.3943 71.0961C51.4443 71.1575 51.4693 71.2293 51.4693 71.3112C51.4693 71.3932 51.4393 71.4649 51.3793 71.5264C51.3193 71.5879 51.2493 71.6186 51.1693 71.6186H50.3294C50.1594 71.6186 50.0294 71.5879 49.9394 71.5264C49.8495 71.4547 49.7845 71.4035 49.7445 71.3727L45.4549 67.0384V71.2651C45.4549 71.3676 45.4199 71.4547 45.3499 71.5264C45.2899 71.5879 45.2049 71.6186 45.0949 71.6186H44.345Z" fill="white"/>
<path d="M53.1729 71.6186C53.0729 71.6186 52.9879 71.5879 52.918 71.5264C52.858 71.4547 52.828 71.3676 52.828 71.2651V61.0596C52.828 60.9571 52.858 60.8751 52.918 60.8136C52.9879 60.7419 53.0729 60.7061 53.1729 60.7061H53.9229C54.0328 60.7061 54.1178 60.7419 54.1778 60.8136C54.2378 60.8751 54.2678 60.9571 54.2678 61.0596V64.6407C54.5378 64.2923 54.8678 64.0106 55.2577 63.7954C55.6477 63.5802 56.1427 63.4726 56.7426 63.4726C57.3925 63.4726 57.9425 63.6212 58.3924 63.9183C58.8524 64.2053 59.1974 64.61 59.4273 65.1326C59.6673 65.6449 59.7873 66.2443 59.7873 66.9308V71.2651C59.7873 71.3676 59.7573 71.4547 59.6973 71.5264C59.6373 71.5879 59.5523 71.6186 59.4423 71.6186H58.6924C58.5924 71.6186 58.5074 71.5879 58.4374 71.5264C58.3774 71.4547 58.3474 71.3676 58.3474 71.2651V67.0077C58.3474 66.2904 58.1775 65.732 57.8375 65.3324C57.4975 64.9225 56.9976 64.7176 56.3376 64.7176C55.7177 64.7176 55.2177 64.9225 54.8378 65.3324C54.4578 65.732 54.2678 66.2904 54.2678 67.0077V71.2651C54.2678 71.3676 54.2378 71.4547 54.1778 71.5264C54.1178 71.5879 54.0328 71.6186 53.9229 71.6186H53.1729Z" fill="white"/>
<path d="M64.1275 71.7723C63.6276 71.7723 63.1726 71.6699 62.7627 71.4649C62.3527 71.26 62.0227 70.9833 61.7727 70.635C61.5228 70.2866 61.3978 69.8921 61.3978 69.4515C61.3978 68.7445 61.6778 68.1809 62.2377 67.7608C62.7977 67.3407 63.5276 67.064 64.4275 66.9308L66.6623 66.6081V66.1623C66.6623 65.6705 66.5223 65.2863 66.2423 65.0096C65.9724 64.7329 65.5274 64.5946 64.9075 64.5946C64.4575 64.5946 64.0925 64.6868 63.8126 64.8713C63.5426 65.0557 63.3526 65.2914 63.2426 65.5783C63.1826 65.732 63.0776 65.8088 62.9276 65.8088H62.2527C62.1427 65.8088 62.0577 65.7781 61.9977 65.7166C61.9477 65.6449 61.9227 65.5629 61.9227 65.4707C61.9227 65.317 61.9777 65.1274 62.0877 64.902C62.2077 64.6766 62.3877 64.4563 62.6277 64.2411C62.8676 64.0259 63.1726 63.8466 63.5426 63.7032C63.9225 63.5495 64.3825 63.4726 64.9225 63.4726C65.5224 63.4726 66.0273 63.5546 66.4373 63.7185C66.8473 63.8722 67.1672 64.0823 67.3972 64.3487C67.6372 64.6151 67.8072 64.9174 67.9072 65.2555C68.0172 65.5937 68.0722 65.9369 68.0722 66.2853V71.2651C68.0722 71.3676 68.0372 71.4547 67.9672 71.5264C67.9072 71.5879 67.8272 71.6186 67.7272 71.6186H67.0373C66.9273 71.6186 66.8423 71.5879 66.7823 71.5264C66.7223 71.4547 66.6923 71.3676 66.6923 71.2651V70.6042C66.5623 70.7887 66.3873 70.9731 66.1673 71.1575C65.9474 71.3317 65.6724 71.4803 65.3424 71.6033C65.0124 71.716 64.6075 71.7723 64.1275 71.7723ZM64.4425 70.6196C64.8525 70.6196 65.2274 70.5325 65.5674 70.3583C65.9074 70.1739 66.1723 69.8921 66.3623 69.513C66.5623 69.1338 66.6623 68.6574 66.6623 68.0836V67.6532L64.9225 67.9145C64.2125 68.017 63.6776 68.1912 63.3176 68.4371C62.9576 68.6728 62.7777 68.975 62.7777 69.3439C62.7777 69.6308 62.8576 69.8716 63.0176 70.0663C63.1876 70.2507 63.3976 70.389 63.6476 70.4813C63.9075 70.5735 64.1725 70.6196 64.4425 70.6196ZM64.5325 62.4736C64.3725 62.4736 64.2925 62.3916 64.2925 62.2277C64.2925 62.1457 64.3175 62.0791 64.3675 62.0279L65.4924 60.6446C65.5824 60.5319 65.6624 60.4601 65.7324 60.4294C65.8024 60.3884 65.9074 60.3679 66.0473 60.3679H67.0673C67.2572 60.3679 67.3522 60.4653 67.3522 60.6599C67.3522 60.7317 67.3272 60.7931 67.2772 60.8444L65.5374 62.3045C65.4574 62.3762 65.3824 62.4224 65.3124 62.4428C65.2424 62.4633 65.1524 62.4736 65.0424 62.4736H64.5325Z" fill="white"/>
<path d="M70.5733 71.6186C70.4733 71.6186 70.3883 71.5879 70.3183 71.5264C70.2583 71.4547 70.2283 71.3676 70.2283 71.2651V63.9798C70.2283 63.8774 70.2583 63.7954 70.3183 63.7339C70.3883 63.6622 70.4733 63.6263 70.5733 63.6263H71.2782C71.3782 63.6263 71.4582 63.6622 71.5182 63.7339C71.5882 63.7954 71.6232 63.8774 71.6232 63.9798V64.6561C71.8832 64.3077 72.2081 64.0259 72.5981 63.8108C72.9981 63.5853 73.508 63.4726 74.128 63.4726C74.7779 63.4726 75.3278 63.6212 75.7778 63.9183C76.2378 64.2053 76.5827 64.61 76.8127 65.1326C77.0427 65.6449 77.1577 66.2443 77.1577 66.9308V71.2651C77.1577 71.3676 77.1277 71.4547 77.0677 71.5264C77.0077 71.5879 76.9277 71.6186 76.8277 71.6186H76.0778C75.9778 71.6186 75.8928 71.5879 75.8228 71.5264C75.7628 71.4547 75.7328 71.3676 75.7328 71.2651V67.0077C75.7328 66.2904 75.5628 65.732 75.2229 65.3324C74.8829 64.9225 74.3829 64.7176 73.723 64.7176C73.1031 64.7176 72.6031 64.9225 72.2231 65.3324C71.8532 65.732 71.6682 66.2904 71.6682 67.0077V71.2651C71.6682 71.3676 71.6332 71.4547 71.5632 71.5264C71.5032 71.5879 71.4232 71.6186 71.3232 71.6186H70.5733Z" fill="white"/>
<path d="M86.1953 75C85.5153 75 84.9554 74.9078 84.5154 74.7233C84.0855 74.5389 83.7455 74.3135 83.4955 74.0471C83.2555 73.7909 83.0806 73.5296 82.9706 73.2632C82.8706 73.007 82.8156 72.8021 82.8056 72.6484C82.7956 72.5459 82.8256 72.4589 82.8956 72.3871C82.9756 72.3154 83.0606 72.2795 83.1505 72.2795H83.8705C83.9605 72.2795 84.0355 72.3 84.0955 72.341C84.1555 72.382 84.2054 72.4691 84.2454 72.6023C84.3054 72.756 84.3954 72.9251 84.5154 73.1095C84.6354 73.3042 84.8204 73.4681 85.0704 73.6013C85.3203 73.7448 85.6703 73.8165 86.1203 73.8165C86.5902 73.8165 86.9852 73.7499 87.3052 73.6167C87.6251 73.4938 87.8651 73.2683 88.0251 72.9404C88.1951 72.6228 88.2801 72.1822 88.2801 71.6186V70.5735C88.0401 70.8911 87.7251 71.1575 87.3352 71.3727C86.9452 71.5776 86.4552 71.6801 85.8653 71.6801C85.3053 71.6801 84.8254 71.5828 84.4254 71.3881C84.0255 71.1832 83.6955 70.9116 83.4355 70.5735C83.1855 70.2251 82.9956 69.8306 82.8656 69.39C82.7456 68.9494 82.6756 68.4883 82.6556 68.0067C82.6456 67.7198 82.6456 67.438 82.6556 67.1614C82.6756 66.6798 82.7456 66.2187 82.8656 65.7781C82.9956 65.3375 83.1855 64.943 83.4355 64.5946C83.6955 64.2462 84.0255 63.9747 84.4254 63.78C84.8254 63.5751 85.3053 63.4726 85.8653 63.4726C86.4652 63.4726 86.9602 63.5905 87.3502 63.8261C87.7501 64.0516 88.0751 64.3282 88.3251 64.6561V63.9952C88.3251 63.8927 88.3551 63.8056 88.4151 63.7339C88.4851 63.6622 88.57 63.6263 88.67 63.6263H89.36C89.46 63.6263 89.545 63.6622 89.6149 63.7339C89.6849 63.8056 89.7199 63.8927 89.7199 63.9952V71.4496C89.7199 72.1361 89.6049 72.7458 89.375 73.2786C89.155 73.8114 88.785 74.2315 88.2651 74.5389C87.7551 74.8463 87.0652 75 86.1953 75ZM86.1653 70.4505C86.6652 70.4505 87.0652 70.3327 87.3652 70.097C87.6751 69.8614 87.9001 69.5642 88.0401 69.2056C88.1901 68.8469 88.2701 68.4832 88.2801 68.1143C88.2901 67.9709 88.2951 67.7967 88.2951 67.5917C88.2951 67.3766 88.2901 67.1972 88.2801 67.0538C88.2701 66.6849 88.1901 66.3212 88.0401 65.9625C87.9001 65.6039 87.6751 65.3068 87.3652 65.0711C87.0652 64.8354 86.6652 64.7176 86.1653 64.7176C85.6653 64.7176 85.2654 64.8354 84.9654 65.0711C84.6654 65.2965 84.4504 65.5988 84.3204 65.9779C84.1905 66.3468 84.1155 66.7464 84.0955 67.1768C84.0855 67.4432 84.0855 67.7147 84.0955 67.9914C84.1155 68.4217 84.1905 68.8264 84.3204 69.2056C84.4504 69.5744 84.6654 69.8767 84.9654 70.1124C85.2654 70.3378 85.6653 70.4505 86.1653 70.4505Z" fill="white"/>
<path d="M92.2949 71.6186C92.1949 71.6186 92.1099 71.5879 92.0399 71.5264C91.9799 71.4547 91.9499 71.3676 91.9499 71.2651V63.9798C91.9499 63.8774 91.9799 63.7954 92.0399 63.7339C92.1099 63.6622 92.1949 63.6263 92.2949 63.6263H93.0148C93.1148 63.6263 93.1948 63.6622 93.2548 63.7339C93.3148 63.7954 93.3448 63.8774 93.3448 63.9798V71.2651C93.3448 71.3676 93.3148 71.4547 93.2548 71.5264C93.1948 71.5879 93.1148 71.6186 93.0148 71.6186H92.2949ZM92.1749 62.1354C92.0749 62.1354 91.9899 62.1047 91.9199 62.0432C91.8599 61.9715 91.8299 61.8844 91.8299 61.7819V60.952C91.8299 60.8495 91.8599 60.7675 91.9199 60.7061C91.9899 60.6343 92.0749 60.5985 92.1749 60.5985H93.1198C93.2198 60.5985 93.2998 60.6343 93.3598 60.7061C93.4298 60.7675 93.4648 60.8495 93.4648 60.952V61.7819C93.4648 61.8844 93.4298 61.9715 93.3598 62.0432C93.2998 62.1047 93.2198 62.1354 93.1198 62.1354H92.1749Z" fill="white"/>
<path d="M98.7921 63.2421C99.772 63.2421 100.497 63.4624 100.967 63.903C101.437 64.3436 101.672 65.0455 101.672 66.0086V71.6186H100.712L100.457 70.4505H100.397C100.167 70.7477 99.927 70.9987 99.677 71.2036C99.437 71.3983 99.1571 71.5418 98.8371 71.634C98.5271 71.7262 98.1472 71.7723 97.6972 71.7723C97.2172 71.7723 96.7823 71.6852 96.3923 71.511C96.0124 71.3369 95.7124 71.0704 95.4924 70.7118C95.2724 70.3429 95.1624 69.8818 95.1624 69.3285C95.1624 68.5088 95.4774 67.8786 96.1073 67.438C96.7373 66.9872 97.7072 66.7413 99.0171 66.7003L100.382 66.6542V66.1623C100.382 65.4758 100.237 64.9994 99.947 64.7329C99.657 64.4665 99.247 64.3333 98.7171 64.3333C98.2971 64.3333 97.8972 64.3999 97.5172 64.5331C97.1372 64.6561 96.7823 64.7996 96.4523 64.9635L96.0473 63.9491C96.3973 63.7544 96.8123 63.5905 97.2922 63.4573C97.7722 63.3138 98.2721 63.2421 98.7921 63.2421ZM99.1821 67.6378C98.1822 67.6788 97.4872 67.8428 97.0972 68.1297C96.7173 68.4166 96.5273 68.8213 96.5273 69.3439C96.5273 69.805 96.6623 70.1431 96.9323 70.3583C97.2122 70.5735 97.5672 70.6811 97.9972 70.6811C98.6771 70.6811 99.242 70.4915 99.692 70.1124C100.142 69.723 100.367 69.1287 100.367 68.3295V67.5917L99.1821 67.6378ZM100.202 60.3987C100.202 60.788 100.087 61.0903 99.857 61.3055C99.627 61.5104 99.337 61.6539 98.9871 61.7358L98.9121 62.5504H98.1022L97.9972 61.244C98.3571 61.1825 98.6421 61.0954 98.8521 60.9827C99.0721 60.8598 99.1821 60.6804 99.1821 60.4448C99.1821 60.1988 99.0871 60.0349 98.8971 59.9529C98.7171 59.871 98.4871 59.83 98.2071 59.83C98.0772 59.83 97.9422 59.8351 97.8022 59.8453C97.6722 59.8556 97.5672 59.871 97.4872 59.8915V59.0922C97.5772 59.0615 97.6872 59.041 97.8172 59.0307C97.9572 59.0102 98.1222 59 98.3121 59C98.9121 59 99.377 59.1127 99.707 59.3381C100.037 59.5636 100.202 59.9171 100.202 60.3987Z" fill="white"/>
<path d="M110.861 75C110.181 75 109.621 74.9078 109.181 74.7233C108.751 74.5389 108.411 74.3135 108.161 74.0471C107.921 73.7909 107.746 73.5296 107.636 73.2632C107.536 73.007 107.481 72.8021 107.471 72.6484C107.461 72.5459 107.491 72.4589 107.561 72.3871C107.641 72.3154 107.726 72.2795 107.816 72.2795H108.536C108.626 72.2795 108.701 72.3 108.761 72.341C108.821 72.382 108.871 72.4691 108.911 72.6023C108.971 72.756 109.061 72.9251 109.181 73.1095C109.301 73.3042 109.486 73.4681 109.736 73.6013C109.986 73.7448 110.336 73.8165 110.786 73.8165C111.256 73.8165 111.651 73.7499 111.971 73.6167C112.291 73.4938 112.531 73.2683 112.691 72.9404C112.861 72.6228 112.946 72.1822 112.946 71.6186V70.5735C112.706 70.8911 112.391 71.1575 112.001 71.3727C111.611 71.5776 111.121 71.6801 110.531 71.6801C109.971 71.6801 109.491 71.5828 109.091 71.3881C108.691 71.1832 108.361 70.9116 108.101 70.5735C107.851 70.2251 107.661 69.8306 107.531 69.39C107.411 68.9494 107.341 68.4883 107.321 68.0067C107.311 67.7198 107.311 67.438 107.321 67.1614C107.341 66.6798 107.411 66.2187 107.531 65.7781C107.661 65.3375 107.851 64.943 108.101 64.5946C108.361 64.2462 108.691 63.9747 109.091 63.78C109.491 63.5751 109.971 63.4726 110.531 63.4726C111.131 63.4726 111.626 63.5905 112.016 63.8261C112.416 64.0516 112.741 64.3282 112.991 64.6561V63.9952C112.991 63.8927 113.021 63.8056 113.081 63.7339C113.151 63.6622 113.236 63.6263 113.336 63.6263H114.026C114.126 63.6263 114.211 63.6622 114.281 63.7339C114.351 63.8056 114.386 63.8927 114.386 63.9952V71.4496C114.386 72.1361 114.271 72.7458 114.041 73.2786C113.821 73.8114 113.451 74.2315 112.931 74.5389C112.421 74.8463 111.731 75 110.861 75ZM110.831 70.4505C111.331 70.4505 111.731 70.3327 112.031 70.097C112.341 69.8614 112.566 69.5642 112.706 69.2056C112.856 68.8469 112.936 68.4832 112.946 68.1143C112.956 67.9709 112.961 67.7967 112.961 67.5917C112.961 67.3766 112.956 67.1972 112.946 67.0538C112.936 66.6849 112.856 66.3212 112.706 65.9625C112.566 65.6039 112.341 65.3068 112.031 65.0711C111.731 64.8354 111.331 64.7176 110.831 64.7176C110.331 64.7176 109.931 64.8354 109.631 65.0711C109.331 65.2965 109.116 65.5988 108.986 65.9779C108.856 66.3468 108.781 66.7464 108.761 67.1768C108.751 67.4432 108.751 67.7147 108.761 67.9914C108.781 68.4217 108.856 68.8264 108.986 69.2056C109.116 69.5744 109.331 69.8767 109.631 70.1124C109.931 70.3378 110.331 70.4505 110.831 70.4505Z" fill="white"/>
<path d="M119.81 71.7723C119.05 71.7723 118.415 71.6238 117.905 71.3266C117.396 71.0295 117.006 70.6196 116.736 70.097C116.466 69.5642 116.316 68.9597 116.286 68.2834C116.276 68.1092 116.271 67.8889 116.271 67.6225C116.271 67.3458 116.276 67.1255 116.286 66.9616C116.316 66.2751 116.466 65.6705 116.736 65.1479C117.016 64.6254 117.411 64.2155 117.92 63.9183C118.43 63.6212 119.06 63.4726 119.81 63.4726C120.56 63.4726 121.19 63.6212 121.7 63.9183C122.21 64.2155 122.6 64.6254 122.87 65.1479C123.15 65.6705 123.305 66.2751 123.335 66.9616C123.345 67.1255 123.35 67.3458 123.35 67.6225C123.35 67.8889 123.345 68.1092 123.335 68.2834C123.305 68.9597 123.155 69.5642 122.885 70.097C122.615 70.6196 122.225 71.0295 121.715 71.3266C121.205 71.6238 120.57 71.7723 119.81 71.7723ZM119.81 70.5889C120.43 70.5889 120.925 70.389 121.295 69.9894C121.665 69.5796 121.865 68.9853 121.895 68.2065C121.905 68.0528 121.91 67.8581 121.91 67.6225C121.91 67.3868 121.905 67.1921 121.895 67.0384C121.865 66.2597 121.665 65.6705 121.295 65.2709C120.925 64.861 120.43 64.6561 119.81 64.6561C119.19 64.6561 118.69 64.861 118.31 65.2709C117.94 65.6705 117.745 66.2597 117.725 67.0384C117.715 67.1921 117.71 67.3868 117.71 67.6225C117.71 67.8581 117.715 68.0528 117.725 68.2065C117.745 68.9853 117.94 69.5796 118.31 69.9894C118.69 70.389 119.19 70.5889 119.81 70.5889ZM119.39 62.4736C119.23 62.4736 119.15 62.3916 119.15 62.2277C119.15 62.1457 119.175 62.0791 119.225 62.0279L120.35 60.6446C120.44 60.5319 120.52 60.4601 120.59 60.4294C120.66 60.3884 120.765 60.3679 120.905 60.3679H121.925C122.115 60.3679 122.21 60.4653 122.21 60.6599C122.21 60.7317 122.185 60.7931 122.135 60.8444L120.395 62.3045C120.315 62.3762 120.24 62.4224 120.17 62.4428C120.1 62.4633 120.01 62.4736 119.9 62.4736H119.39Z" fill="white"/>
<path d="M125.588 74.5389C125.488 74.5389 125.403 74.503 125.333 74.4313C125.273 74.3698 125.243 74.2879 125.243 74.1854V63.9798C125.243 63.8774 125.273 63.7954 125.333 63.7339C125.403 63.6622 125.488 63.6263 125.588 63.6263H126.278C126.378 63.6263 126.458 63.6622 126.518 63.7339C126.588 63.7954 126.623 63.8774 126.623 63.9798V64.6561C126.863 64.318 127.183 64.0362 127.583 63.8108C127.983 63.5853 128.483 63.4726 129.083 63.4726C129.643 63.4726 130.118 63.57 130.508 63.7646C130.908 63.9593 131.232 64.2257 131.482 64.5639C131.742 64.902 131.937 65.2863 132.067 65.7166C132.197 66.147 132.267 66.6081 132.277 67.0999C132.287 67.2638 132.292 67.438 132.292 67.6225C132.292 67.8069 132.287 67.9811 132.277 68.1451C132.267 68.6266 132.197 69.0877 132.067 69.5283C131.937 69.9587 131.742 70.3429 131.482 70.6811C131.232 71.009 130.908 71.2754 130.508 71.4803C130.118 71.675 129.643 71.7723 129.083 71.7723C128.503 71.7723 128.013 71.6647 127.613 71.4496C127.223 71.2241 126.903 70.9475 126.653 70.6196V74.1854C126.653 74.2879 126.623 74.3698 126.563 74.4313C126.503 74.503 126.418 74.5389 126.308 74.5389H125.588ZM128.768 70.5274C129.288 70.5274 129.693 70.4147 129.983 70.1892C130.283 69.9536 130.498 69.6513 130.628 69.2824C130.758 68.9033 130.833 68.4986 130.853 68.0682C130.863 67.7711 130.863 67.4739 130.853 67.1768C130.833 66.7464 130.758 66.3468 130.628 65.9779C130.498 65.5988 130.283 65.2965 129.983 65.0711C129.693 64.8354 129.288 64.7176 128.768 64.7176C128.278 64.7176 127.878 64.8354 127.568 65.0711C127.268 65.3068 127.043 65.609 126.893 65.9779C126.753 66.3365 126.673 66.7054 126.653 67.0845C126.643 67.2485 126.638 67.4432 126.638 67.6686C126.638 67.894 126.643 68.0938 126.653 68.268C126.663 68.6266 126.743 68.9801 126.893 69.3285C127.053 69.6769 127.288 69.9638 127.598 70.1892C127.908 70.4147 128.298 70.5274 128.768 70.5274Z" fill="white"/>
<path d="M138.184 71.6186C138.084 71.6186 137.999 71.5879 137.929 71.5264C137.869 71.4547 137.839 71.3676 137.839 71.2651V63.9798C137.839 63.8774 137.869 63.7954 137.929 63.7339C137.999 63.6622 138.084 63.6263 138.184 63.6263H138.859C138.959 63.6263 139.039 63.6622 139.099 63.7339C139.169 63.7954 139.204 63.8774 139.204 63.9798V64.5178C139.434 64.2001 139.724 63.9491 140.074 63.7646C140.424 63.57 140.844 63.4726 141.334 63.4726C142.464 63.4624 143.264 63.9337 143.734 64.8866C143.964 64.4563 144.299 64.113 144.739 63.8569C145.178 63.6007 145.678 63.4726 146.238 63.4726C146.758 63.4726 147.228 63.5956 147.648 63.8415C148.078 64.0874 148.413 64.4614 148.653 64.9635C148.903 65.4553 149.028 66.0752 149.028 66.8232V71.2651C149.028 71.3676 148.993 71.4547 148.923 71.5264C148.863 71.5879 148.783 71.6186 148.683 71.6186H147.978C147.878 71.6186 147.793 71.5879 147.723 71.5264C147.663 71.4547 147.633 71.3676 147.633 71.2651V66.9616C147.633 66.3878 147.553 65.9369 147.393 65.609C147.233 65.2811 147.018 65.0506 146.748 64.9174C146.478 64.7842 146.183 64.7176 145.863 64.7176C145.603 64.7176 145.338 64.7842 145.068 64.9174C144.799 65.0506 144.574 65.2811 144.394 65.609C144.224 65.9369 144.139 66.3878 144.139 66.9616V71.2651C144.139 71.3676 144.104 71.4547 144.034 71.5264C143.974 71.5879 143.894 71.6186 143.794 71.6186H143.089C142.989 71.6186 142.904 71.5879 142.834 71.5264C142.774 71.4547 142.744 71.3676 142.744 71.2651V66.9616C142.744 66.3878 142.659 65.9369 142.489 65.609C142.319 65.2811 142.099 65.0506 141.829 64.9174C141.559 64.7842 141.274 64.7176 140.974 64.7176C140.714 64.7176 140.449 64.7842 140.179 64.9174C139.909 65.0506 139.684 65.2811 139.504 65.609C139.334 65.9369 139.249 66.3826 139.249 66.9462V71.2651C139.249 71.3676 139.214 71.4547 139.144 71.5264C139.084 71.5879 139.004 71.6186 138.904 71.6186H138.184Z" fill="white"/>
<path d="M154.378 63.2421C155.358 63.2421 156.083 63.4624 156.552 63.903C157.022 64.3436 157.257 65.0455 157.257 66.0086V71.6186H156.298L156.043 70.4505H155.983C155.753 70.7477 155.513 70.9987 155.263 71.2036C155.023 71.3983 154.743 71.5418 154.423 71.634C154.113 71.7262 153.733 71.7723 153.283 71.7723C152.803 71.7723 152.368 71.6852 151.978 71.511C151.598 71.3369 151.298 71.0704 151.078 70.7118C150.858 70.3429 150.748 69.8818 150.748 69.3285C150.748 68.5088 151.063 67.8786 151.693 67.438C152.323 66.9872 153.293 66.7413 154.603 66.7003L155.968 66.6542V66.1623C155.968 65.4758 155.823 64.9994 155.533 64.7329C155.243 64.4665 154.833 64.3333 154.303 64.3333C153.883 64.3333 153.483 64.3999 153.103 64.5331C152.723 64.6561 152.368 64.7996 152.038 64.9635L151.633 63.9491C151.983 63.7544 152.398 63.5905 152.878 63.4573C153.358 63.3138 153.858 63.2421 154.378 63.2421ZM154.768 67.6378C153.768 67.6788 153.073 67.8428 152.683 68.1297C152.303 68.4166 152.113 68.8213 152.113 69.3439C152.113 69.805 152.248 70.1431 152.518 70.3583C152.798 70.5735 153.153 70.6811 153.583 70.6811C154.263 70.6811 154.828 70.4915 155.278 70.1124C155.728 69.723 155.953 69.1287 155.953 68.3295V67.5917L154.768 67.6378ZM156.672 60.245C156.642 60.6548 156.527 61.0134 156.328 61.3208C156.138 61.6282 155.873 61.869 155.533 62.0432C155.193 62.2174 154.783 62.3045 154.303 62.3045C153.563 62.3045 153.003 62.1201 152.623 61.7512C152.253 61.3721 152.048 60.87 152.008 60.245H152.818C152.848 60.5216 152.923 60.7317 153.043 60.8751C153.173 61.0083 153.343 61.1005 153.553 61.1518C153.773 61.1928 154.033 61.2133 154.333 61.2133C154.593 61.2133 154.828 61.1876 155.038 61.1364C155.258 61.0852 155.438 60.993 155.578 60.8598C155.728 60.7163 155.818 60.5114 155.848 60.245H156.672ZM154.003 74.3237C153.793 74.3237 153.608 74.252 153.448 74.1085C153.298 73.9651 153.223 73.7499 153.223 73.463C153.223 73.1659 153.298 72.9456 153.448 72.8021C153.608 72.6689 153.793 72.6023 154.003 72.6023C154.213 72.6023 154.393 72.6689 154.543 72.8021C154.703 72.9456 154.783 73.1659 154.783 73.463C154.783 73.7499 154.703 73.9651 154.543 74.1085C154.393 74.252 154.213 74.3237 154.003 74.3237Z" fill="white"/>
<path d="M162.62 71.6186C162.06 71.6186 161.605 71.511 161.255 71.2959C160.905 71.0704 160.65 70.7579 160.49 70.3583C160.33 69.9484 160.25 69.4669 160.25 68.9135V64.8559H159.08C158.98 64.8559 158.895 64.8252 158.825 64.7637C158.765 64.692 158.735 64.6049 158.735 64.5024V63.9798C158.735 63.8774 158.765 63.7954 158.825 63.7339C158.895 63.6622 158.98 63.6263 159.08 63.6263H160.25V61.0596C160.25 60.9571 160.28 60.8751 160.34 60.8136C160.41 60.7419 160.495 60.7061 160.595 60.7061H161.3C161.4 60.7061 161.48 60.7419 161.54 60.8136C161.61 60.8751 161.645 60.9571 161.645 61.0596V63.6263H163.505C163.605 63.6263 163.685 63.6622 163.745 63.7339C163.815 63.7954 163.85 63.8774 163.85 63.9798V64.5024C163.85 64.6049 163.815 64.692 163.745 64.7637C163.685 64.8252 163.605 64.8559 163.505 64.8559H161.645V68.806C161.645 69.2875 161.725 69.6667 161.885 69.9433C162.045 70.22 162.33 70.3583 162.74 70.3583H163.655C163.755 70.3583 163.835 70.3942 163.895 70.4659C163.965 70.5274 164 70.6093 164 70.7118V71.2651C164 71.3676 163.965 71.4547 163.895 71.5264C163.835 71.5879 163.755 71.6186 163.655 71.6186H162.62Z" fill="white"/>
<path d="M56.2135 152.514C55.8736 152.514 55.5676 152.4 55.2957 152.174C55.0577 151.947 54.9388 151.655 54.9388 151.299V127.139L47.5963 132.535C47.2904 132.762 46.9675 132.843 46.6275 132.778C46.3216 132.713 46.0496 132.535 45.8117 132.243L43.2622 129.083C43.0583 128.792 42.9733 128.484 43.0073 128.16C43.0753 127.836 43.2622 127.576 43.5682 127.382L55.1937 118.826C55.3977 118.697 55.5846 118.616 55.7546 118.583C55.9586 118.519 56.1795 118.486 56.4175 118.486H61.8223C62.1623 118.486 62.4512 118.6 62.6891 118.826C62.9271 119.053 63.0461 119.345 63.0461 119.701V151.299C63.0461 151.655 62.9271 151.947 62.6891 152.174C62.4512 152.4 62.1623 152.514 61.8223 152.514H56.2135Z" fill="white"/>
<path d="M83.4681 153C81.0886 153 78.981 152.741 77.1454 152.222C75.3438 151.671 73.8311 150.926 72.6073 149.986C71.3836 149.014 70.4658 147.896 69.8539 146.632C69.2421 145.336 68.9361 143.926 68.9361 142.403C68.9361 140.556 69.412 138.951 70.3638 137.59C71.3156 136.229 72.5224 135.176 73.9841 134.431C72.7943 133.685 71.8595 132.745 71.1796 131.611C70.5338 130.444 70.2109 129.1 70.2109 127.576C70.2109 125.729 70.7037 124.093 71.6895 122.667C72.6753 121.241 74.137 120.106 76.0746 119.264C78.0462 118.421 80.5107 118 83.4681 118C86.3914 118 88.8219 118.421 90.7595 119.264C92.6971 120.074 94.1588 121.192 95.1446 122.618C96.1304 124.044 96.6233 125.681 96.6233 127.528C96.6233 129.051 96.3004 130.396 95.6545 131.562C95.0086 132.729 94.0908 133.685 92.9011 134.431C94.4647 135.144 95.7055 136.197 96.6233 137.59C97.5411 138.984 98 140.604 98 142.451C98 144.461 97.4561 146.259 96.3683 147.847C95.2806 149.435 93.6489 150.699 91.4734 151.639C89.2978 152.546 86.6294 153 83.4681 153ZM83.4681 147.41C84.6578 147.41 85.7456 147.215 86.7314 146.826C87.7172 146.405 88.482 145.822 89.0259 145.076C89.6038 144.331 89.8927 143.456 89.8927 142.451C89.8927 141.414 89.6038 140.539 89.0259 139.826C88.482 139.081 87.7172 138.514 86.7314 138.125C85.7456 137.704 84.6578 137.493 83.4681 137.493C82.2443 137.493 81.1396 137.704 80.1538 138.125C79.202 138.514 78.4371 139.081 77.8592 139.826C77.2814 140.539 76.9924 141.414 76.9924 142.451C76.9924 143.456 77.2814 144.331 77.8592 145.076C78.4371 145.822 79.202 146.405 80.1538 146.826C81.1396 147.215 82.2443 147.41 83.4681 147.41ZM83.4681 132.194C84.5218 132.162 85.4736 131.968 86.3235 131.611C87.1733 131.255 87.8531 130.769 88.363 130.153C88.8729 129.505 89.1279 128.759 89.1279 127.917C89.1279 127.042 88.8729 126.296 88.363 125.681C87.8871 125.032 87.2243 124.53 86.3744 124.174C85.5246 123.817 84.5558 123.639 83.4681 123.639C82.3803 123.639 81.3945 123.817 80.5107 124.174C79.6609 124.53 78.998 125.032 78.5221 125.681C78.0462 126.296 77.8083 127.042 77.8083 127.917C77.8083 128.792 78.0462 129.553 78.5221 130.201C78.998 130.817 79.6609 131.303 80.5107 131.66C81.3945 132.016 82.3803 132.194 83.4681 132.194Z" fill="white"/>
<path d="M46.5644 190.32C46.4646 190.32 46.3797 190.289 46.3098 190.228C46.2499 190.157 46.22 190.071 46.22 189.97V181.015H43.3445C43.2446 181.015 43.1598 180.985 43.0899 180.924C43.03 180.853 43 180.766 43 180.665V180.025C43 179.914 43.03 179.827 43.0899 179.766C43.1598 179.695 43.2446 179.66 43.3445 179.66H50.5632C50.673 179.66 50.7579 179.695 50.8178 179.766C50.8877 179.827 50.9226 179.914 50.9226 180.025V180.665C50.9226 180.766 50.8877 180.853 50.8178 180.924C50.7579 180.985 50.673 181.015 50.5632 181.015H47.7026V189.97C47.7026 190.071 47.6677 190.157 47.5978 190.228C47.5379 190.289 47.453 190.32 47.3432 190.32H46.5644Z" fill="white"/>
<path d="M52.7074 190.32C52.6075 190.32 52.5227 190.289 52.4528 190.228C52.3929 190.157 52.3629 190.071 52.3629 189.97V182.751C52.3629 182.65 52.3929 182.569 52.4528 182.508C52.5227 182.437 52.6075 182.401 52.7074 182.401H53.4263C53.5261 182.401 53.606 182.437 53.6659 182.508C53.7258 182.569 53.7558 182.65 53.7558 182.751V189.97C53.7558 190.071 53.7258 190.157 53.6659 190.228C53.606 190.289 53.5261 190.32 53.4263 190.32H52.7074ZM52.5876 180.924C52.4877 180.924 52.4029 180.893 52.333 180.832C52.2731 180.761 52.2431 180.675 52.2431 180.574V179.751C52.2431 179.65 52.2731 179.569 52.333 179.508C52.4029 179.437 52.4877 179.401 52.5876 179.401H53.5311C53.6309 179.401 53.7108 179.437 53.7707 179.508C53.8406 179.569 53.8756 179.65 53.8756 179.751V180.574C53.8756 180.675 53.8406 180.761 53.7707 180.832C53.7108 180.893 53.6309 180.924 53.5311 180.924H52.5876Z" fill="white"/>
<path d="M59.1195 190.472C58.0911 190.472 57.2724 190.152 56.6633 189.513C56.0543 188.863 55.7198 187.98 55.6599 186.863C55.6499 186.731 55.6449 186.563 55.6449 186.36C55.6449 186.147 55.6499 185.975 55.6599 185.843C55.6998 185.122 55.8646 184.492 56.1541 183.954C56.4437 183.406 56.838 182.985 57.3373 182.69C57.8465 182.396 58.4405 182.249 59.1195 182.249C59.8783 182.249 60.5123 182.411 61.0215 182.736C61.5407 183.061 61.9351 183.523 62.2046 184.122C62.4742 184.721 62.609 185.421 62.609 186.223V186.482C62.609 186.594 62.5741 186.68 62.5042 186.741C62.4443 186.802 62.3644 186.832 62.2645 186.832H57.0827C57.0827 186.843 57.0827 186.863 57.0827 186.893C57.0827 186.924 57.0827 186.949 57.0827 186.97C57.1026 187.386 57.1925 187.777 57.3522 188.142C57.512 188.497 57.7416 188.787 58.0412 189.01C58.3407 189.234 58.7001 189.345 59.1195 189.345C59.4789 189.345 59.7784 189.289 60.0181 189.178C60.2577 189.066 60.4524 188.944 60.6021 188.812C60.7519 188.67 60.8518 188.563 60.9017 188.492C60.9915 188.36 61.0614 188.284 61.1114 188.264C61.1613 188.234 61.2411 188.218 61.351 188.218H62.0699C62.1697 188.218 62.2496 188.249 62.3095 188.31C62.3794 188.36 62.4093 188.437 62.3993 188.538C62.3894 188.69 62.3095 188.878 62.1597 189.102C62.0099 189.315 61.7953 189.528 61.5157 189.741C61.2362 189.954 60.8967 190.132 60.4973 190.274C60.0979 190.406 59.6387 190.472 59.1195 190.472ZM57.0827 185.782H61.1862V185.736C61.1862 185.279 61.1014 184.873 60.9316 184.518C60.7719 184.162 60.5373 183.883 60.2277 183.68C59.9182 183.467 59.5488 183.36 59.1195 183.36C58.6901 183.36 58.3207 183.467 58.0112 183.68C57.7117 183.883 57.482 184.162 57.3223 184.518C57.1625 184.873 57.0827 185.279 57.0827 185.736V185.782ZM57.0827 181.259C56.9329 181.259 56.858 181.198 56.858 181.076C56.858 180.995 56.9129 180.898 57.0227 180.787L58.4006 179.386C58.5004 179.274 58.5853 179.213 58.6552 179.203C58.7351 179.183 58.8149 179.173 58.8948 179.173H59.3441C59.434 179.173 59.5139 179.183 59.5837 179.203C59.6536 179.213 59.7385 179.274 59.8383 179.386L61.2162 180.787C61.316 180.898 61.366 180.995 61.366 181.076C61.366 181.198 61.2961 181.259 61.1563 181.259H60.7669C60.697 181.259 60.6221 181.249 60.5422 181.228C60.4624 181.208 60.3975 181.183 60.3475 181.152L59.1195 180.284L57.8914 181.152C57.8315 181.183 57.7616 181.208 57.6817 181.228C57.6118 181.249 57.5419 181.259 57.472 181.259H57.0827Z" fill="white"/>
<path d="M58.6986 178.086C58.5389 178.086 58.459 178.005 58.459 177.843C58.459 177.761 58.4839 177.695 58.5339 177.645L59.6571 176.274C59.747 176.162 59.8268 176.091 59.8967 176.061C59.9666 176.02 60.0715 176 60.2112 176H61.2296C61.4193 176 61.5142 176.096 61.5142 176.289C61.5142 176.36 61.4892 176.421 61.4393 176.472L59.702 177.919C59.6222 177.99 59.5473 178.036 59.4774 178.056C59.4075 178.076 59.3176 178.086 59.2078 178.086H58.6986Z" fill="white"/>
<path d="M67.3961 190.32C66.837 190.32 66.3827 190.213 66.0333 190C65.6838 189.777 65.4292 189.467 65.2695 189.071C65.1097 188.665 65.0298 188.188 65.0298 187.64V183.619H63.8617C63.7618 183.619 63.6769 183.589 63.6071 183.528C63.5472 183.457 63.5172 183.371 63.5172 183.269V182.751C63.5172 182.65 63.5472 182.569 63.6071 182.508C63.6769 182.437 63.7618 182.401 63.8617 182.401H65.0298V179.858C65.0298 179.756 65.0598 179.675 65.1197 179.614C65.1896 179.543 65.2745 179.508 65.3743 179.508H66.0782C66.178 179.508 66.2579 179.543 66.3178 179.614C66.3877 179.675 66.4227 179.756 66.4227 179.858V182.401H68.2797C68.3796 182.401 68.4595 182.437 68.5194 182.508C68.5893 182.569 68.6242 182.65 68.6242 182.751V183.269C68.6242 183.371 68.5893 183.457 68.5194 183.528C68.4595 183.589 68.3796 183.619 68.2797 183.619H66.4227V187.533C66.4227 188.01 66.5025 188.386 66.6623 188.66C66.822 188.934 67.1066 189.071 67.5159 189.071H68.4295C68.5294 189.071 68.6092 189.107 68.6691 189.178C68.739 189.239 68.774 189.32 68.774 189.421V189.97C68.774 190.071 68.739 190.157 68.6691 190.228C68.6092 190.289 68.5294 190.32 68.4295 190.32H67.3961Z" fill="white"/>
<path d="M74.2216 190.32C74.1217 190.32 74.0369 190.289 73.967 190.228C73.9071 190.157 73.8771 190.071 73.8771 189.97V182.751C73.8771 182.65 73.9071 182.569 73.967 182.508C74.0369 182.437 74.1217 182.401 74.2216 182.401H74.8955C74.9954 182.401 75.0752 182.437 75.1352 182.508C75.205 182.569 75.24 182.65 75.24 182.751V183.284C75.4696 182.97 75.7592 182.721 76.1086 182.538C76.4581 182.345 76.8774 182.249 77.3667 182.249C78.4949 182.239 79.2937 182.706 79.7629 183.65C79.9926 183.223 80.327 182.883 80.7663 182.629C81.2057 182.376 81.7049 182.249 82.264 182.249C82.7832 182.249 83.2525 182.371 83.6718 182.614C84.1011 182.858 84.4356 183.228 84.6752 183.726C84.9248 184.213 85.0496 184.827 85.0496 185.569V189.97C85.0496 190.071 85.0147 190.157 84.9448 190.228C84.8849 190.289 84.805 190.32 84.7052 190.32H84.0013C83.9014 190.32 83.8166 190.289 83.7467 190.228C83.6868 190.157 83.6568 190.071 83.6568 189.97V185.706C83.6568 185.137 83.577 184.69 83.4172 184.365C83.2575 184.041 83.0428 183.812 82.7732 183.68C82.5036 183.548 82.2091 183.482 81.8896 183.482C81.63 183.482 81.3654 183.548 81.0958 183.68C80.8263 183.812 80.6016 184.041 80.4219 184.365C80.2522 184.69 80.1673 185.137 80.1673 185.706V189.97C80.1673 190.071 80.1323 190.157 80.0624 190.228C80.0025 190.289 79.9227 190.32 79.8228 190.32H79.1189C79.0191 190.32 78.9342 190.289 78.8643 190.228C78.8044 190.157 78.7745 190.071 78.7745 189.97V185.706C78.7745 185.137 78.6896 184.69 78.5199 184.365C78.3501 184.041 78.1305 183.812 77.8609 183.68C77.5913 183.548 77.3068 183.482 77.0072 183.482C76.7476 183.482 76.483 183.548 76.2135 183.68C75.9439 183.812 75.7192 184.041 75.5395 184.365C75.3698 184.69 75.2849 185.132 75.2849 185.69V189.97C75.2849 190.071 75.25 190.157 75.1801 190.228C75.1202 190.289 75.0403 190.32 74.9405 190.32H74.2216Z" fill="white"/>
<path d="M94.0606 182.157V190.32H92.9823L92.7876 189.239H92.7277C92.558 189.523 92.3383 189.756 92.0687 189.939C91.7992 190.122 91.5046 190.254 91.1851 190.335C90.8656 190.426 90.5312 190.472 90.1817 190.472C89.5427 190.472 89.0035 190.371 88.5642 190.168C88.1349 189.954 87.8104 189.629 87.5908 189.193C87.3711 188.756 87.2613 188.193 87.2613 187.503V182.157H88.5942V187.411C88.5942 188.061 88.7389 188.548 89.0285 188.873C89.318 189.198 89.7673 189.36 90.3764 189.36C90.9755 189.36 91.4447 189.249 91.7842 189.025C92.1336 188.792 92.3783 188.457 92.518 188.02C92.6678 187.574 92.7427 187.036 92.7427 186.406V182.157H94.0606ZM90.4662 193C90.2566 193 90.0719 192.929 89.9121 192.787C89.7623 192.645 89.6875 192.431 89.6875 192.147C89.6875 191.853 89.7623 191.635 89.9121 191.492C90.0719 191.36 90.2566 191.294 90.4662 191.294C90.6759 191.294 90.8556 191.36 91.0054 191.492C91.1652 191.635 91.245 191.853 91.245 192.147C91.245 192.431 91.1652 192.645 91.0054 192.787C90.8556 192.929 90.6759 193 90.4662 193Z" fill="white"/>
<path d="M99.5894 190.472C98.8805 190.472 98.2665 190.335 97.7473 190.061C97.2381 189.777 96.8437 189.376 96.5642 188.858C96.2846 188.33 96.1348 187.701 96.1149 186.97C96.1049 186.817 96.0999 186.614 96.0999 186.36C96.0999 186.107 96.1049 185.904 96.1149 185.751C96.1348 185.02 96.2846 184.396 96.5642 183.878C96.8437 183.35 97.2381 182.949 97.7473 182.675C98.2665 182.391 98.8805 182.249 99.5894 182.249C100.169 182.249 100.663 182.33 101.072 182.492C101.491 182.655 101.836 182.863 102.106 183.117C102.375 183.371 102.575 183.645 102.705 183.939C102.844 184.234 102.919 184.513 102.929 184.777C102.939 184.878 102.909 184.959 102.839 185.02C102.769 185.081 102.685 185.112 102.585 185.112H101.866C101.766 185.112 101.691 185.091 101.641 185.051C101.591 185 101.541 184.919 101.491 184.807C101.312 184.31 101.067 183.959 100.758 183.756C100.448 183.553 100.064 183.452 99.6044 183.452C99.0054 183.452 98.5161 183.64 98.1367 184.015C97.7673 184.391 97.5676 184.995 97.5376 185.827C97.5277 186.193 97.5277 186.548 97.5376 186.893C97.5676 187.736 97.7673 188.345 98.1367 188.721C98.5161 189.086 99.0054 189.269 99.6044 189.269C100.064 189.269 100.448 189.168 100.758 188.964C101.067 188.761 101.312 188.411 101.491 187.914C101.541 187.802 101.591 187.726 101.641 187.685C101.691 187.635 101.766 187.609 101.866 187.609H102.585C102.685 187.609 102.769 187.64 102.839 187.701C102.909 187.761 102.939 187.843 102.929 187.944C102.919 188.157 102.874 188.376 102.794 188.599C102.715 188.822 102.585 189.051 102.405 189.284C102.235 189.508 102.021 189.711 101.761 189.893C101.501 190.066 101.187 190.208 100.818 190.32C100.458 190.421 100.049 190.472 99.5894 190.472Z" fill="white"/>
<path d="M111.239 190.472C110.62 190.472 110.106 190.365 109.697 190.152C109.297 189.929 108.978 189.64 108.738 189.284C108.499 188.919 108.324 188.523 108.214 188.096C108.114 187.66 108.059 187.234 108.049 186.817C108.039 186.655 108.034 186.503 108.034 186.36C108.034 186.218 108.039 186.066 108.049 185.904C108.059 185.487 108.114 185.066 108.214 184.64C108.324 184.213 108.499 183.817 108.738 183.452C108.978 183.086 109.297 182.797 109.697 182.584C110.106 182.36 110.62 182.249 111.239 182.249C111.818 182.249 112.303 182.355 112.692 182.569C113.091 182.782 113.416 183.046 113.666 183.36V181.685H112.872C112.772 181.685 112.687 181.655 112.617 181.594C112.557 181.533 112.527 181.447 112.527 181.335V181.015C112.527 180.914 112.557 180.832 112.617 180.772C112.687 180.711 112.772 180.68 112.872 180.68H113.666V179.858C113.666 179.756 113.695 179.675 113.755 179.614C113.815 179.543 113.9 179.508 114.01 179.508H114.729C114.829 179.508 114.909 179.543 114.969 179.614C115.038 179.675 115.073 179.756 115.073 179.858V180.68H115.867C115.967 180.68 116.047 180.711 116.107 180.772C116.177 180.832 116.212 180.914 116.212 181.015V181.335C116.212 181.447 116.177 181.533 116.107 181.594C116.047 181.655 115.967 181.685 115.867 181.685H115.073V189.97C115.073 190.071 115.038 190.157 114.969 190.228C114.909 190.289 114.829 190.32 114.729 190.32H114.04C113.94 190.32 113.855 190.289 113.785 190.228C113.725 190.157 113.695 190.071 113.695 189.97V189.299C113.456 189.635 113.136 189.914 112.737 190.137C112.338 190.36 111.838 190.472 111.239 190.472ZM111.554 189.239C112.043 189.239 112.437 189.122 112.737 188.888C113.047 188.655 113.276 188.36 113.426 188.005C113.576 187.64 113.656 187.269 113.666 186.893C113.676 186.731 113.681 186.538 113.681 186.315C113.681 186.081 113.676 185.883 113.666 185.721C113.656 185.365 113.571 185.015 113.411 184.67C113.261 184.325 113.032 184.041 112.722 183.817C112.422 183.594 112.033 183.482 111.554 183.482C111.045 183.482 110.64 183.599 110.341 183.832C110.041 184.056 109.827 184.355 109.697 184.731C109.567 185.096 109.492 185.492 109.472 185.919C109.462 186.213 109.462 186.508 109.472 186.802C109.492 187.228 109.567 187.629 109.697 188.005C109.827 188.371 110.041 188.67 110.341 188.904C110.64 189.127 111.045 189.239 111.554 189.239Z" fill="white"/>
<path d="M120.491 182.02C121.469 182.02 122.193 182.239 122.662 182.675C123.132 183.112 123.366 183.807 123.366 184.761V190.32H122.408L122.153 189.162H122.093C121.864 189.457 121.624 189.706 121.374 189.909C121.135 190.102 120.855 190.244 120.536 190.335C120.226 190.426 119.847 190.472 119.397 190.472C118.918 190.472 118.484 190.386 118.095 190.213C117.715 190.041 117.416 189.777 117.196 189.421C116.976 189.056 116.866 188.599 116.866 188.051C116.866 187.239 117.181 186.614 117.81 186.178C118.439 185.731 119.407 185.487 120.715 185.447L122.078 185.401V184.914C122.078 184.234 121.934 183.761 121.644 183.497C121.354 183.234 120.945 183.102 120.416 183.102C119.997 183.102 119.597 183.168 119.218 183.299C118.838 183.421 118.484 183.563 118.154 183.726L117.75 182.721C118.1 182.528 118.514 182.365 118.993 182.234C119.472 182.091 119.972 182.02 120.491 182.02ZM120.88 186.376C119.882 186.416 119.188 186.579 118.798 186.863C118.419 187.147 118.229 187.548 118.229 188.066C118.229 188.523 118.364 188.858 118.634 189.071C118.913 189.284 119.268 189.391 119.697 189.391C120.376 189.391 120.94 189.203 121.389 188.827C121.839 188.442 122.063 187.853 122.063 187.061V186.33L120.88 186.376ZM122.782 179.051C122.752 179.457 122.637 179.812 122.438 180.117C122.248 180.421 121.983 180.66 121.644 180.832C121.304 181.005 120.895 181.091 120.416 181.091C119.677 181.091 119.118 180.909 118.739 180.543C118.369 180.168 118.164 179.67 118.124 179.051H118.933C118.963 179.325 119.038 179.533 119.158 179.675C119.288 179.807 119.457 179.898 119.667 179.949C119.887 179.99 120.146 180.01 120.446 180.01C120.705 180.01 120.94 179.985 121.15 179.934C121.369 179.883 121.549 179.792 121.689 179.66C121.839 179.518 121.929 179.315 121.958 179.051H122.782ZM120.116 193C119.907 193 119.722 192.929 119.562 192.787C119.412 192.645 119.338 192.431 119.338 192.147C119.338 191.853 119.412 191.635 119.562 191.492C119.722 191.36 119.907 191.294 120.116 191.294C120.326 191.294 120.506 191.36 120.656 191.492C120.815 191.635 120.895 191.853 120.895 192.147C120.895 192.431 120.815 192.645 120.656 192.787C120.506 192.929 120.326 193 120.116 193Z" fill="white"/>
<path d="M128.826 190.472C128.117 190.472 127.503 190.335 126.984 190.061C126.475 189.777 126.08 189.376 125.801 188.858C125.521 188.33 125.371 187.701 125.351 186.97C125.341 186.817 125.336 186.614 125.336 186.36C125.336 186.107 125.341 185.904 125.351 185.751C125.371 185.02 125.521 184.396 125.801 183.878C126.08 183.35 126.475 182.949 126.984 182.675C127.503 182.391 128.117 182.249 128.826 182.249C129.405 182.249 129.899 182.33 130.309 182.492C130.728 182.655 131.072 182.863 131.342 183.117C131.612 183.371 131.811 183.645 131.941 183.939C132.081 184.234 132.156 184.513 132.166 184.777C132.176 184.878 132.146 184.959 132.076 185.02C132.006 185.081 131.921 185.112 131.821 185.112H131.102C131.003 185.112 130.928 185.091 130.878 185.051C130.828 185 130.778 184.919 130.728 184.807C130.548 184.31 130.304 183.959 129.994 183.756C129.685 183.553 129.3 183.452 128.841 183.452C128.242 183.452 127.753 183.64 127.373 184.015C127.004 184.391 126.804 184.995 126.774 185.827C126.764 186.193 126.764 186.548 126.774 186.893C126.804 187.736 127.004 188.345 127.373 188.721C127.753 189.086 128.242 189.269 128.841 189.269C129.3 189.269 129.685 189.168 129.994 188.964C130.304 188.761 130.548 188.411 130.728 187.914C130.778 187.802 130.828 187.726 130.878 187.685C130.928 187.635 131.003 187.609 131.102 187.609H131.821C131.921 187.609 132.006 187.64 132.076 187.701C132.146 187.761 132.176 187.843 132.166 187.944C132.156 188.157 132.111 188.376 132.031 188.599C131.951 188.822 131.821 189.051 131.642 189.284C131.472 189.508 131.257 189.711 130.998 189.893C130.738 190.066 130.423 190.208 130.054 190.32C129.695 190.421 129.285 190.472 128.826 190.472Z" fill="white"/>
<path d="M140.311 190.472C139.752 190.472 139.273 190.401 138.873 190.259C138.474 190.117 138.149 189.944 137.9 189.741C137.65 189.538 137.461 189.335 137.331 189.132C137.211 188.929 137.146 188.766 137.136 188.645C137.126 188.533 137.161 188.447 137.241 188.386C137.321 188.325 137.401 188.294 137.481 188.294H138.139C138.199 188.294 138.244 188.305 138.274 188.325C138.314 188.335 138.364 188.376 138.424 188.447C138.554 188.589 138.699 188.731 138.858 188.873C139.018 189.015 139.213 189.132 139.442 189.223C139.682 189.315 139.977 189.36 140.326 189.36C140.835 189.36 141.255 189.264 141.584 189.071C141.914 188.868 142.078 188.574 142.078 188.188C142.078 187.934 142.008 187.731 141.869 187.579C141.739 187.426 141.499 187.289 141.15 187.168C140.81 187.046 140.341 186.919 139.742 186.787C139.143 186.645 138.669 186.472 138.319 186.269C137.97 186.056 137.72 185.807 137.57 185.523C137.421 185.228 137.346 184.898 137.346 184.533C137.346 184.157 137.456 183.797 137.675 183.452C137.895 183.096 138.214 182.807 138.634 182.584C139.063 182.36 139.597 182.249 140.236 182.249C140.755 182.249 141.2 182.315 141.569 182.447C141.939 182.579 142.243 182.746 142.483 182.949C142.722 183.142 142.902 183.335 143.022 183.528C143.142 183.721 143.207 183.883 143.217 184.015C143.227 184.117 143.197 184.203 143.127 184.274C143.057 184.335 142.977 184.365 142.887 184.365H142.258C142.188 184.365 142.128 184.35 142.078 184.32C142.038 184.289 141.998 184.254 141.959 184.213C141.859 184.081 141.739 183.949 141.599 183.817C141.469 183.685 141.295 183.579 141.075 183.497C140.865 183.406 140.586 183.36 140.236 183.36C139.737 183.36 139.363 183.467 139.113 183.68C138.863 183.893 138.739 184.162 138.739 184.487C138.739 184.68 138.793 184.853 138.903 185.005C139.013 185.157 139.223 185.294 139.532 185.416C139.842 185.538 140.301 185.67 140.91 185.812C141.569 185.944 142.088 186.122 142.468 186.345C142.847 186.569 143.117 186.827 143.276 187.122C143.436 187.416 143.516 187.756 143.516 188.142C143.516 188.569 143.391 188.959 143.142 189.315C142.902 189.67 142.543 189.954 142.063 190.168C141.594 190.371 141.01 190.472 140.311 190.472Z" fill="white"/>
<path d="M147.421 190.472C146.922 190.472 146.468 190.371 146.059 190.168C145.649 189.964 145.32 189.69 145.07 189.345C144.821 189 144.696 188.609 144.696 188.173C144.696 187.472 144.975 186.914 145.534 186.497C146.094 186.081 146.822 185.807 147.721 185.675L149.952 185.355V184.914C149.952 184.426 149.813 184.046 149.533 183.772C149.264 183.497 148.819 183.36 148.2 183.36C147.751 183.36 147.386 183.452 147.107 183.635C146.837 183.817 146.648 184.051 146.538 184.335C146.478 184.487 146.373 184.563 146.223 184.563H145.549C145.44 184.563 145.355 184.533 145.295 184.472C145.245 184.401 145.22 184.32 145.22 184.228C145.22 184.076 145.275 183.888 145.385 183.665C145.504 183.442 145.684 183.223 145.924 183.01C146.163 182.797 146.468 182.619 146.837 182.477C147.217 182.325 147.676 182.249 148.215 182.249C148.814 182.249 149.318 182.33 149.728 182.492C150.137 182.645 150.457 182.853 150.686 183.117C150.926 183.381 151.096 183.68 151.196 184.015C151.305 184.35 151.36 184.69 151.36 185.036V189.97C151.36 190.071 151.325 190.157 151.255 190.228C151.196 190.289 151.116 190.32 151.016 190.32H150.327C150.217 190.32 150.132 190.289 150.072 190.228C150.012 190.157 149.982 190.071 149.982 189.97V189.315C149.853 189.497 149.678 189.68 149.458 189.863C149.239 190.036 148.964 190.183 148.635 190.305C148.305 190.416 147.901 190.472 147.421 190.472ZM147.736 189.33C148.145 189.33 148.52 189.244 148.859 189.071C149.199 188.888 149.463 188.609 149.653 188.234C149.853 187.858 149.952 187.386 149.952 186.817V186.391L148.215 186.65C147.506 186.751 146.972 186.924 146.613 187.168C146.253 187.401 146.074 187.701 146.074 188.066C146.074 188.35 146.153 188.589 146.313 188.782C146.483 188.964 146.693 189.102 146.942 189.193C147.202 189.284 147.466 189.33 147.736 189.33ZM148.23 181.335C147.771 181.335 147.406 181.249 147.137 181.076C146.867 180.893 146.678 180.66 146.568 180.376C146.458 180.081 146.403 179.777 146.403 179.462C146.403 179.381 146.428 179.315 146.478 179.264C146.528 179.203 146.598 179.173 146.688 179.173H147.137C147.227 179.173 147.297 179.203 147.347 179.264C147.396 179.315 147.421 179.381 147.421 179.462C147.421 179.695 147.476 179.914 147.586 180.117C147.696 180.32 147.911 180.421 148.23 180.421C148.56 180.421 148.774 180.32 148.874 180.117C148.984 179.914 149.039 179.69 149.039 179.447C149.039 179.376 149.064 179.315 149.114 179.264C149.164 179.203 149.234 179.173 149.323 179.173H149.773C149.863 179.173 149.933 179.203 149.982 179.264C150.032 179.315 150.057 179.381 150.057 179.462C150.057 179.777 149.997 180.081 149.878 180.376C149.768 180.66 149.578 180.893 149.308 181.076C149.049 181.249 148.689 181.335 148.23 181.335Z" fill="white"/>
<path d="M147.827 178.086C147.667 178.086 147.587 178.005 147.587 177.843C147.587 177.761 147.612 177.695 147.662 177.645L148.785 176.274C148.875 176.162 148.955 176.091 149.025 176.061C149.095 176.02 149.2 176 149.339 176H150.358C150.547 176 150.642 176.096 150.642 176.289C150.642 176.36 150.617 176.421 150.567 176.472L148.83 177.919C148.75 177.99 148.675 178.036 148.606 178.056C148.536 178.076 148.446 178.086 148.336 178.086H147.827Z" fill="white"/>
<path d="M156.658 190.472C155.949 190.472 155.335 190.335 154.816 190.061C154.307 189.777 153.913 189.376 153.633 188.858C153.354 188.33 153.204 187.701 153.184 186.97C153.174 186.817 153.169 186.614 153.169 186.36C153.169 186.107 153.174 185.904 153.184 185.751C153.204 185.02 153.354 184.396 153.633 183.878C153.913 183.35 154.307 182.949 154.816 182.675C155.335 182.391 155.949 182.249 156.658 182.249C157.237 182.249 157.732 182.33 158.141 182.492C158.56 182.655 158.905 182.863 159.174 183.117C159.444 183.371 159.644 183.645 159.773 183.939C159.913 184.234 159.988 184.513 159.998 184.777C160.008 184.878 159.978 184.959 159.908 185.02C159.838 185.081 159.754 185.112 159.654 185.112H158.935C158.835 185.112 158.76 185.091 158.71 185.051C158.66 185 158.61 184.919 158.56 184.807C158.381 184.31 158.136 183.959 157.827 183.756C157.517 183.553 157.133 183.452 156.673 183.452C156.074 183.452 155.585 183.64 155.206 184.015C154.836 184.391 154.637 184.995 154.607 185.827C154.597 186.193 154.597 186.548 154.607 186.893C154.637 187.736 154.836 188.345 155.206 188.721C155.585 189.086 156.074 189.269 156.673 189.269C157.133 189.269 157.517 189.168 157.827 188.964C158.136 188.761 158.381 188.411 158.56 187.914C158.61 187.802 158.66 187.726 158.71 187.685C158.76 187.635 158.835 187.609 158.935 187.609H159.654C159.754 187.609 159.838 187.64 159.908 187.701C159.978 187.761 160.008 187.843 159.998 187.944C159.988 188.157 159.943 188.376 159.863 188.599C159.783 188.822 159.654 189.051 159.474 189.284C159.304 189.508 159.09 189.711 158.83 189.893C158.57 190.066 158.256 190.208 157.886 190.32C157.527 190.421 157.118 190.472 156.658 190.472Z" fill="white"/>
</svg>
