<svg width="467" height="26" viewBox="0 0 467 26" fill="none" xmlns="http://www.w3.org/2000/svg">
<path d="M9.71157 13.0003C10.3792 13.0003 10.951 12.752 11.4269 12.2554C11.9027 11.7589 12.1403 11.1627 12.1395 10.4668C12.1395 9.77012 11.9015 9.1735 11.4257 8.67694C10.9498 8.18038 10.3784 7.93253 9.71157 7.93337C9.0439 7.93337 8.47213 8.18165 7.99627 8.67821C7.5204 9.17476 7.28287 9.77097 7.28368 10.4668C7.28368 11.1635 7.52161 11.7602 7.99748 12.2567C8.47335 12.7533 9.04471 13.0011 9.71157 13.0003ZM9.71157 25.6675C6.45415 22.7752 4.0214 20.0889 2.41333 17.6086C0.805251 15.1284 0.000809298 12.8322 0 10.7202C0 7.55335 0.976418 5.03045 2.92925 3.15148C4.88209 1.2725 7.14286 0.333008 9.71157 0.333008C12.2811 0.333008 14.5423 1.2725 16.4951 3.15148C18.4479 5.03045 19.424 7.55335 19.4231 10.7202C19.4231 12.8314 18.6187 15.1275 17.0098 17.6086C15.4009 20.0897 12.9682 22.776 9.71157 25.6675Z" fill="#121332"/>
<path d="M64.3831 11.7802V17.9905C64.1268 18.2797 63.7352 18.59 63.2083 18.9215C62.6886 19.253 62.0229 19.5386 61.2112 19.7784C60.3995 20.0112 59.4312 20.1276 58.3062 20.1276C57.288 20.1276 56.3624 19.9654 55.5294 19.6409C54.6963 19.3094 53.9808 18.8263 53.3827 18.1915C52.7846 17.5497 52.3218 16.7668 51.9943 15.8428C51.6739 14.9189 51.5137 13.8609 51.5137 12.6689V11.7591C51.5137 10.5671 51.6739 9.50911 51.9943 8.58515C52.3147 7.66119 52.7668 6.88183 53.3506 6.24705C53.9345 5.60521 54.6287 5.11855 55.4333 4.78705C56.2378 4.45555 57.1278 4.28981 58.1033 4.28981C59.4917 4.28981 60.6273 4.51198 61.5102 4.95632C62.3931 5.39362 63.0624 6.00019 63.5181 6.77603C63.9809 7.55187 64.2657 8.44409 64.3725 9.45269H61.0189C60.9477 8.93781 60.8053 8.49346 60.5917 8.11965C60.3852 7.74583 60.0898 7.46018 59.7053 7.26269C59.3208 7.05815 58.8224 6.95588 58.2101 6.95588C57.7188 6.95588 57.2738 7.05815 56.8751 7.26269C56.4835 7.46018 56.1524 7.75994 55.8818 8.16197C55.6113 8.56399 55.4048 9.06476 55.2624 9.66428C55.12 10.2567 55.0488 10.9479 55.0488 11.7379V12.6689C55.0488 13.4589 55.12 14.1536 55.2624 14.7531C55.4119 15.3526 55.6291 15.8534 55.9139 16.2554C56.1987 16.6504 56.5582 16.9501 56.9925 17.1547C57.434 17.3592 57.9466 17.4615 58.5305 17.4615C58.9862 17.4615 59.3706 17.4262 59.6839 17.3557C59.9972 17.2781 60.2535 17.1829 60.4529 17.0701C60.6522 16.9501 60.8018 16.8408 60.9014 16.7421V14.1818H58.1353V11.7802H64.3831Z" fill="#121332"/>
<path d="M69.7125 10.8069H71.4106C71.8948 10.8069 72.2935 10.7222 72.6068 10.553C72.9272 10.3837 73.1622 10.1439 73.3117 9.83355C73.4683 9.52322 73.5466 9.15998 73.5466 8.74385C73.5466 8.38414 73.4754 8.06322 73.333 7.7811C73.1906 7.49897 72.9735 7.2768 72.6816 7.11458C72.3968 6.9453 72.0265 6.86067 71.5708 6.86067C71.2433 6.86067 70.93 6.92767 70.631 7.06168C70.3391 7.18864 70.1005 7.37554 69.9154 7.6224C69.7303 7.86221 69.6377 8.15139 69.6377 8.48994H66.2949C66.2949 7.62946 66.5298 6.88535 66.9998 6.25762C67.4768 5.6299 68.1069 5.14676 68.8901 4.80821C69.6805 4.46261 70.542 4.28981 71.4747 4.28981C72.5498 4.28981 73.4932 4.45908 74.3049 4.79763C75.1237 5.12913 75.7574 5.62284 76.206 6.27878C76.6617 6.92767 76.8895 7.73173 76.8895 8.69095C76.8895 9.19172 76.7685 9.67486 76.5264 10.1404C76.2914 10.5988 75.9532 11.0079 75.5118 11.3676C75.0774 11.7203 74.5577 12.0024 73.9525 12.214C73.3544 12.4185 72.6887 12.5208 71.9553 12.5208H69.7125V10.8069ZM69.7125 13.2931V11.6109H71.9553C72.767 11.6109 73.4932 11.7026 74.134 11.886C74.7748 12.0694 75.3195 12.3339 75.7681 12.6795C76.2167 13.0251 76.5584 13.4447 76.7934 13.9385C77.0283 14.4322 77.1458 14.9823 77.1458 15.5889C77.1458 16.3083 77.0034 16.9501 76.7186 17.5144C76.4338 18.0786 76.0351 18.5547 75.5225 18.9427C75.0098 19.3306 74.4082 19.6268 73.7175 19.8313C73.0269 20.0288 72.2793 20.1276 71.4747 20.1276C70.8268 20.1276 70.1824 20.0394 69.5416 19.8631C68.9008 19.6868 68.3205 19.4187 67.8008 19.059C67.281 18.6923 66.8645 18.2303 66.5512 17.6731C66.2379 17.1088 66.0813 16.4388 66.0813 15.663H69.4241C69.4241 16.0227 69.5167 16.3471 69.7018 16.6363C69.8941 16.9184 70.1539 17.1441 70.4815 17.3134C70.8161 17.4756 71.1792 17.5567 71.5708 17.5567C72.0408 17.5567 72.4395 17.4721 72.767 17.3028C73.1016 17.1265 73.3544 16.8867 73.5253 16.5834C73.7033 16.2801 73.7923 15.931 73.7923 15.536C73.7923 15 73.6962 14.5697 73.5039 14.2453C73.3188 13.9138 73.0482 13.674 72.6922 13.5259C72.3362 13.3707 71.909 13.2931 71.4106 13.2931H69.7125Z" fill="#121332"/>
<path d="M91.2008 12.0024V14.5838H84.985V12.0024H91.2008Z" fill="#121332"/>
<path d="M106.153 4.51198V19.916H102.682V4.51198H106.153ZM110.884 4.51198V7.18864H98.0467V4.51198H110.884Z" fill="#121332"/>
<path d="M112.604 4.51198H118.574C119.763 4.51198 120.792 4.68831 121.66 5.04096C122.536 5.39362 123.209 5.91555 123.679 6.60675C124.149 7.29796 124.384 8.15139 124.384 9.16703C124.384 10.0134 124.245 10.7328 123.967 11.3253C123.69 11.9177 123.298 12.4079 122.792 12.7959C122.294 13.1838 121.71 13.4976 121.041 13.7375L119.909 14.3511H114.825L114.804 11.6744H118.584C119.104 11.6744 119.535 11.5827 119.877 11.3993C120.219 11.216 120.475 10.9585 120.646 10.627C120.824 10.2885 120.913 9.89351 120.913 9.44211C120.913 8.9766 120.824 8.57457 120.646 8.23602C120.468 7.89747 120.204 7.64004 119.855 7.46371C119.514 7.28033 119.086 7.18864 118.574 7.18864H116.085V19.916H112.604V4.51198ZM121.212 19.916L117.719 13.0709L121.393 13.0604L124.939 19.7573V19.916H121.212Z" fill="#121332"/>
<path d="M140.788 3.65503H142.892C142.892 4.70594 142.757 5.60521 142.486 6.35284C142.223 7.09342 141.76 7.65767 141.098 8.04559C140.443 8.43351 139.525 8.62747 138.343 8.62747V6.9453C139.112 6.9453 139.667 6.81482 140.009 6.55386C140.35 6.28584 140.564 5.9085 140.649 5.42183C140.742 4.92811 140.788 4.33918 140.788 3.65503ZM135.256 4.51198H138.738V14.6261C138.738 15.8252 138.481 16.8338 137.969 17.6519C137.463 18.4701 136.758 19.0872 135.854 19.5034C134.95 19.9195 133.903 20.1276 132.714 20.1276C131.518 20.1276 130.464 19.9195 129.553 19.5034C128.649 19.0872 127.937 18.4701 127.417 17.6519C126.904 16.8338 126.648 15.8252 126.648 14.6261V4.51198H130.14V14.6261C130.14 15.2891 130.24 15.8322 130.439 16.2554C130.646 16.6715 130.941 16.9784 131.326 17.1758C131.71 17.3663 132.173 17.4615 132.714 17.4615C133.255 17.4615 133.715 17.3663 134.092 17.1758C134.476 16.9784 134.765 16.6715 134.957 16.2554C135.156 15.8322 135.256 15.2891 135.256 14.6261V4.51198Z" fill="#121332"/>
<path d="M154.801 3.39053H156.915C156.915 4.39208 156.776 5.2455 156.499 5.95081C156.228 6.65613 155.801 7.19569 155.217 7.5695C154.64 7.93627 153.893 8.11965 152.974 8.11965V6.43748C153.466 6.43748 153.843 6.31758 154.106 6.07777C154.37 5.83091 154.551 5.48178 154.651 5.03038C154.751 4.57193 154.801 4.02531 154.801 3.39053ZM155.388 11.8754V12.5631C155.388 13.7339 155.224 14.7848 154.897 15.7159C154.576 16.6469 154.117 17.4403 153.519 18.0963C152.928 18.7522 152.22 19.2565 151.394 19.6092C150.575 19.9548 149.674 20.1276 148.692 20.1276C147.908 20.1276 147.171 20.0147 146.481 19.789C145.79 19.5633 145.167 19.2389 144.612 18.8157C144.064 18.3925 143.59 17.8706 143.191 17.2499C142.8 16.6292 142.497 15.9274 142.284 15.1446C142.077 14.3546 141.974 13.4941 141.974 12.5631V11.8754C141.974 10.7046 142.134 9.6537 142.454 8.72269C142.782 7.78462 143.241 6.98762 143.832 6.33168C144.43 5.67574 145.139 5.17497 145.957 4.82937C146.776 4.47671 147.681 4.30039 148.67 4.30039C149.461 4.30039 150.197 4.41324 150.881 4.63893C151.572 4.86463 152.191 5.1926 152.739 5.62284C153.288 6.04603 153.761 6.56796 154.16 7.18864C154.558 7.80226 154.861 8.50404 155.068 9.29399C155.281 10.0769 155.388 10.9374 155.388 11.8754ZM151.864 12.5631V11.8543C151.864 11.2265 151.817 10.6588 151.725 10.1509C151.632 9.63607 151.497 9.18467 151.319 8.79675C151.148 8.40882 150.934 8.08438 150.678 7.82342C150.422 7.5554 150.126 7.35438 149.792 7.22038C149.457 7.08637 149.083 7.01936 148.67 7.01936C148.15 7.01936 147.691 7.12516 147.292 7.33675C146.901 7.54129 146.57 7.8481 146.299 8.25718C146.029 8.66626 145.826 9.17409 145.69 9.78066C145.555 10.3802 145.488 11.0714 145.488 11.8543V12.5631C145.488 13.1838 145.53 13.7516 145.616 14.2664C145.708 14.7743 145.84 15.2257 146.011 15.6206C146.189 16.0086 146.406 16.3365 146.662 16.6045C146.926 16.8726 147.225 17.0771 147.559 17.2182C147.901 17.3522 148.279 17.4192 148.692 17.4192C149.204 17.4192 149.656 17.3134 150.048 17.1018C150.447 16.8902 150.778 16.5763 151.041 16.1602C151.312 15.7441 151.515 15.2362 151.65 14.6367C151.792 14.0302 151.864 13.339 151.864 12.5631ZM148.2 0.333008L150.315 3.62329H147.592L144.622 0.333008H148.2Z" fill="#121332"/>
<path d="M170.714 4.51198V19.916H167.243L161.369 9.96051V19.916H157.887V4.51198H161.369L167.254 14.4675V4.51198H170.714Z" fill="#121332"/>
<path d="M185.815 11.7802V17.9905C185.559 18.2797 185.168 18.59 184.641 18.9215C184.121 19.253 183.455 19.5386 182.643 19.7784C181.832 20.0112 180.863 20.1276 179.738 20.1276C178.72 20.1276 177.795 19.9654 176.962 19.6409C176.129 19.3094 175.413 18.8263 174.815 18.1915C174.217 17.5497 173.754 16.7668 173.427 15.8428C173.106 14.9189 172.946 13.8609 172.946 12.6689V11.7591C172.946 10.5671 173.106 9.50911 173.427 8.58515C173.747 7.66119 174.199 6.88183 174.783 6.24705C175.367 5.60521 176.061 5.11855 176.866 4.78705C177.67 4.45555 178.56 4.28981 179.536 4.28981C180.924 4.28981 182.06 4.51198 182.943 4.95632C183.825 5.39362 184.495 6.00019 184.95 6.77603C185.413 7.55187 185.698 8.44409 185.805 9.45269H182.451C182.38 8.93781 182.238 8.49346 182.024 8.11965C181.818 7.74583 181.522 7.46018 181.138 7.26269C180.753 7.05815 180.255 6.95588 179.642 6.95588C179.151 6.95588 178.706 7.05815 178.307 7.26269C177.916 7.46018 177.585 7.75994 177.314 8.16197C177.044 8.56399 176.837 9.06476 176.695 9.66428C176.552 10.2567 176.481 10.9479 176.481 11.7379V12.6689C176.481 13.4589 176.552 14.1536 176.695 14.7531C176.844 15.3526 177.061 15.8534 177.346 16.2554C177.631 16.6504 177.991 16.9501 178.425 17.1547C178.866 17.3592 179.379 17.4615 179.963 17.4615C180.418 17.4615 180.803 17.4262 181.116 17.3557C181.43 17.2781 181.686 17.1829 181.885 17.0701C182.085 16.9501 182.234 16.8408 182.334 16.7421V14.1818H179.568V11.7802H185.815Z" fill="#121332"/>
<path d="M198.888 19.916H195.47L195.492 17.2499H198.888C199.664 17.2499 200.319 17.0736 200.853 16.7209C201.387 16.3612 201.793 15.8322 202.071 15.134C202.348 14.4287 202.487 13.5717 202.487 12.5631V11.8543C202.487 11.0925 202.409 10.4225 202.252 9.84413C202.095 9.25873 201.864 8.76853 201.558 8.37356C201.252 7.97858 200.871 7.68235 200.415 7.48487C199.967 7.28738 199.45 7.18864 198.866 7.18864H195.406V4.51198H198.866C199.92 4.51198 200.881 4.68831 201.75 5.04096C202.626 5.39362 203.381 5.89792 204.014 6.55386C204.655 7.2098 205.15 7.98564 205.499 8.88138C205.848 9.77713 206.022 10.7751 206.022 11.8754V12.5631C206.022 13.6563 205.848 14.6544 205.499 15.5572C205.15 16.4529 204.655 17.2287 204.014 17.8847C203.381 18.5336 202.629 19.0343 201.761 19.387C200.892 19.7397 199.934 19.916 198.888 19.916ZM197.446 4.51198V19.916H193.964V4.51198H197.446ZM200.063 11.1878V13.145H192.416V11.1878H200.063Z" fill="#121332"/>
<path d="M214.374 7.44255L210.358 19.916H206.642L212.398 4.51198H214.748L214.374 7.44255ZM217.706 19.916L213.68 7.44255L213.263 4.51198H215.645L221.423 19.916H217.706ZM217.535 14.1818V16.8479H209.429V14.1818H217.535ZM212.249 22.2964C212.249 21.8662 212.419 21.5065 212.761 21.2173C213.103 20.9281 213.552 20.7835 214.107 20.7835C214.662 20.7835 215.111 20.9281 215.453 21.2173C215.802 21.5065 215.976 21.8662 215.976 22.2964C215.976 22.7196 215.802 23.0723 215.453 23.3544C215.111 23.6436 214.662 23.7881 214.107 23.7881C213.552 23.7881 213.103 23.6436 212.761 23.3544C212.419 23.0723 212.249 22.7196 212.249 22.2964Z" fill="#121332"/>
<path d="M226.421 4.51198V19.916H222.95V4.51198H226.421Z" fill="#121332"/>
<path d="M245.111 10.7117V13.3777H237.058V10.7117H245.111ZM238.158 4.51198V19.916H234.677V4.51198H238.158ZM247.514 4.51198V19.916H244.043V4.51198H247.514Z" fill="#121332"/>
<path d="M263.064 11.8754V12.5631C263.064 13.7339 262.901 14.7848 262.573 15.7159C262.253 16.6469 261.793 17.4403 261.195 18.0963C260.604 18.7522 259.899 19.2565 259.081 19.6092C258.269 19.9548 257.368 20.1276 256.379 20.1276C255.389 20.1276 254.485 19.9548 253.666 19.6092C252.847 19.2565 252.135 18.7522 251.53 18.0963C250.932 17.4403 250.469 16.6469 250.141 15.7159C249.814 14.7848 249.65 13.7339 249.65 12.5631V11.8754C249.65 10.7046 249.814 9.6537 250.141 8.72269C250.469 7.78462 250.928 6.98762 251.519 6.33168C252.117 5.67574 252.826 5.17497 253.645 4.82937C254.463 4.47671 255.368 4.30039 256.357 4.30039C257.347 4.30039 258.251 4.47671 259.07 4.82937C259.889 5.17497 260.594 5.67574 261.185 6.33168C261.783 6.98762 262.246 7.78462 262.573 8.72269C262.901 9.6537 263.064 10.7046 263.064 11.8754ZM259.551 12.5631V11.8543C259.551 11.0714 259.479 10.3802 259.337 9.78066C259.195 9.17409 258.988 8.66626 258.718 8.25718C258.447 7.8481 258.112 7.54129 257.714 7.33675C257.315 7.12516 256.863 7.01936 256.357 7.01936C255.83 7.01936 255.371 7.12516 254.98 7.33675C254.588 7.54129 254.257 7.8481 253.986 8.25718C253.723 8.66626 253.52 9.17409 253.378 9.78066C253.242 10.3802 253.175 11.0714 253.175 11.8543V12.5631C253.175 13.339 253.242 14.0302 253.378 14.6367C253.52 15.2362 253.726 15.7441 253.997 16.1602C254.268 16.5763 254.599 16.8902 254.99 17.1018C255.389 17.3134 255.852 17.4192 256.379 17.4192C256.884 17.4192 257.333 17.3134 257.724 17.1018C258.123 16.8902 258.458 16.5763 258.728 16.1602C258.999 15.7441 259.202 15.2362 259.337 14.6367C259.479 14.0302 259.551 13.339 259.551 12.5631ZM254.563 22.381C254.563 21.9508 254.734 21.5911 255.076 21.3019C255.417 21.0127 255.866 20.8682 256.421 20.8682C256.977 20.8682 257.425 21.0127 257.767 21.3019C258.116 21.5911 258.29 21.9508 258.29 22.381C258.29 22.8042 258.116 23.1569 257.767 23.439C257.425 23.7282 256.977 23.8728 256.421 23.8728C255.866 23.8728 255.417 23.7282 255.076 23.439C254.734 23.1569 254.563 22.8042 254.563 22.381Z" fill="#121332"/>
<path d="M274.14 14.7531H277.6C277.543 15.8111 277.251 16.7456 276.724 17.5567C276.204 18.3608 275.482 18.992 274.556 19.4505C273.63 19.9019 272.53 20.1276 271.256 20.1276C270.238 20.1276 269.326 19.9548 268.522 19.6092C267.717 19.2636 267.034 18.7699 266.471 18.128C265.916 17.4791 265.489 16.6998 265.19 15.7899C264.898 14.873 264.752 13.8397 264.752 12.6901V11.7485C264.752 10.5988 264.905 9.56554 265.211 8.64863C265.517 7.73173 265.955 6.94883 266.525 6.29994C267.094 5.65106 267.778 5.15381 268.575 4.80821C269.373 4.46261 270.263 4.28981 271.245 4.28981C272.57 4.28981 273.687 4.52608 274.599 4.99864C275.51 5.4712 276.215 6.12009 276.713 6.9453C277.219 7.77052 277.522 8.71211 277.621 9.77008H274.15C274.122 9.17056 274.008 8.66626 273.808 8.25718C273.609 7.84105 273.303 7.52719 272.89 7.31559C272.477 7.104 271.929 6.9982 271.245 6.9982C270.747 6.9982 270.309 7.08989 269.932 7.27327C269.561 7.45665 269.252 7.74231 269.002 8.13023C268.76 8.51815 268.579 9.01187 268.458 9.61138C268.337 10.2038 268.276 10.9092 268.276 11.7273V12.6901C268.276 13.5012 268.33 14.203 268.436 14.7954C268.543 15.3879 268.714 15.8781 268.949 16.266C269.191 16.6539 269.501 16.9431 269.878 17.1335C270.256 17.324 270.715 17.4192 271.256 17.4192C271.875 17.4192 272.392 17.324 272.805 17.1335C273.218 16.936 273.534 16.6398 273.755 16.2448C273.976 15.8499 274.104 15.3526 274.14 14.7531Z" fill="#121332"/>
<path d="M287.928 4.51198L290.662 9.7595L293.396 4.51198H297.369L292.947 12.1505L297.486 19.916H293.481L290.662 14.5732L287.853 19.916H283.837L288.387 12.1505L283.955 4.51198H287.928Z" fill="#121332"/>
<path d="M305.368 7.44255L301.352 19.916H297.636L303.392 4.51198H305.742L305.368 7.44255ZM308.7 19.916L304.674 7.44255L304.257 4.51198H306.639L312.417 19.916H308.7ZM308.529 14.1818V16.8479H300.423V14.1818H308.529ZM306.009 0.385906L309.373 3.34821V3.47517H306.735L305.048 1.98344L303.371 3.47517H300.786V3.3059L304.086 0.385906H306.009Z" fill="#121332"/>
<path d="M314.702 4.51198L317.746 11.3676L320.811 4.51198H324.571L319.519 14.3511V19.916H315.984V14.3511L310.922 4.51198H314.702Z" fill="#121332"/>
<path d="M336.233 19.916H332.816L332.837 17.2499H336.233C337.01 17.2499 337.665 17.0736 338.199 16.7209C338.733 16.3612 339.138 15.8322 339.416 15.134C339.694 14.4287 339.833 13.5717 339.833 12.5631V11.8543C339.833 11.0925 339.754 10.4225 339.598 9.84413C339.441 9.25873 339.21 8.76853 338.903 8.37356C338.597 7.97858 338.216 7.68235 337.761 7.48487C337.312 7.28738 336.796 7.18864 336.212 7.18864H332.752V4.51198H336.212C337.266 4.51198 338.227 4.68831 339.096 5.04096C339.971 5.39362 340.726 5.89792 341.36 6.55386C342.001 7.2098 342.496 7.98564 342.844 8.88138C343.193 9.77713 343.368 10.7751 343.368 11.8754V12.5631C343.368 13.6563 343.193 14.6544 342.844 15.5572C342.496 16.4529 342.001 17.2287 341.36 17.8847C340.726 18.5336 339.975 19.0343 339.106 19.387C338.238 19.7397 337.28 19.916 336.233 19.916ZM334.792 4.51198V19.916H331.31V4.51198H334.792Z" fill="#121332"/>
<path d="M359.537 3.65503H361.641C361.641 4.70594 361.506 5.60521 361.235 6.35284C360.972 7.09342 360.509 7.65767 359.847 8.04559C359.192 8.43351 358.274 8.62747 357.092 8.62747V6.9453C357.861 6.9453 358.416 6.81482 358.758 6.55386C359.099 6.28584 359.313 5.9085 359.399 5.42183C359.491 4.92811 359.537 4.33918 359.537 3.65503ZM354.005 4.51198H357.487V14.6261C357.487 15.8252 357.23 16.8338 356.718 17.6519C356.212 18.4701 355.507 19.0872 354.603 19.5034C353.699 19.9195 352.652 20.1276 351.463 20.1276C350.267 20.1276 349.213 19.9195 348.302 19.5034C347.398 19.0872 346.686 18.4701 346.166 17.6519C345.653 16.8338 345.397 15.8252 345.397 14.6261V4.51198H348.889V14.6261C348.889 15.2891 348.989 15.8322 349.188 16.2554C349.395 16.6715 349.69 16.9784 350.075 17.1758C350.459 17.3663 350.922 17.4615 351.463 17.4615C352.004 17.4615 352.464 17.3663 352.841 17.1758C353.225 16.9784 353.514 16.6715 353.706 16.2554C353.905 15.8322 354.005 15.2891 354.005 14.6261V4.51198ZM350.053 22.4868C350.053 22.0566 350.224 21.6969 350.566 21.4077C350.908 21.1185 351.356 20.974 351.912 20.974C352.467 20.974 352.916 21.1185 353.257 21.4077C353.606 21.6969 353.781 22.0566 353.781 22.4868C353.781 22.91 353.606 23.2627 353.257 23.5448C352.916 23.834 352.467 23.9786 351.912 23.9786C351.356 23.9786 350.908 23.834 350.566 23.5448C350.224 23.2627 350.053 22.91 350.053 22.4868Z" fill="#121332"/>
<path d="M373.998 4.51198V19.916H370.527L364.653 9.96051V19.916H361.171V4.51198H364.653L370.538 14.4675V4.51198H373.998Z" fill="#121332"/>
<path d="M389.1 11.7802V17.9905C388.843 18.2797 388.452 18.59 387.925 18.9215C387.405 19.253 386.739 19.5386 385.928 19.7784C385.116 20.0112 384.148 20.1276 383.023 20.1276C382.005 20.1276 381.079 19.9654 380.246 19.6409C379.413 19.3094 378.697 18.8263 378.099 18.1915C377.501 17.5497 377.038 16.7668 376.711 15.8428C376.39 14.9189 376.23 13.8609 376.23 12.6689V11.7591C376.23 10.5671 376.39 9.50911 376.711 8.58515C377.031 7.66119 377.483 6.88183 378.067 6.24705C378.651 5.60521 379.345 5.11855 380.15 4.78705C380.954 4.45555 381.844 4.28981 382.82 4.28981C384.208 4.28981 385.344 4.51198 386.227 4.95632C387.11 5.39362 387.779 6.00019 388.235 6.77603C388.697 7.55187 388.982 8.44409 389.089 9.45269H385.736C385.664 8.93781 385.522 8.49346 385.308 8.11965C385.102 7.74583 384.806 7.46018 384.422 7.26269C384.037 7.05815 383.539 6.95588 382.927 6.95588C382.435 6.95588 381.99 7.05815 381.592 7.26269C381.2 7.46018 380.869 7.75994 380.598 8.16197C380.328 8.56399 380.121 9.06476 379.979 9.66428C379.837 10.2567 379.765 10.9479 379.765 11.7379V12.6689C379.765 13.4589 379.837 14.1536 379.979 14.7531C380.129 15.3526 380.346 15.8534 380.63 16.2554C380.915 16.6504 381.275 16.9501 381.709 17.1547C382.151 17.3592 382.663 17.4615 383.247 17.4615C383.703 17.4615 384.087 17.4262 384.401 17.3557C384.714 17.2781 384.97 17.1829 385.169 17.0701C385.369 16.9501 385.518 16.8408 385.618 16.7421V14.1818H382.852V11.7802H389.1Z" fill="#121332"/>
<path d="M407.363 10.7117V13.3777H399.31V10.7117H407.363ZM400.41 4.51198V19.916H396.928V4.51198H400.41ZM409.766 4.51198V19.916H406.295V4.51198H409.766Z" fill="#121332"/>
<path d="M419.004 7.44255L414.988 19.916H411.272L417.028 4.51198H419.378L419.004 7.44255ZM422.336 19.916L418.31 7.44255L417.893 4.51198H420.275L426.053 19.916H422.336ZM422.165 14.1818V16.8479H414.059V14.1818H422.165ZM418.182 0.385906L420.296 3.67618H417.573L414.604 0.385906H418.182Z" fill="#121332"/>
<path d="M445.619 4.51198V19.916H442.148L436.274 9.96051V19.916H432.792V4.51198H436.274L442.158 14.4675V4.51198H445.619Z" fill="#121332"/>
<path d="M461.158 11.8754V12.5631C461.158 13.7339 460.994 14.7848 460.667 15.7159C460.346 16.6469 459.887 17.4403 459.289 18.0963C458.698 18.7522 457.993 19.2565 457.174 19.6092C456.363 19.9548 455.462 20.1276 454.472 20.1276C453.483 20.1276 452.578 19.9548 451.76 19.6092C450.941 19.2565 450.229 18.7522 449.624 18.0963C449.026 17.4403 448.563 16.6469 448.235 15.7159C447.908 14.7848 447.744 13.7339 447.744 12.5631V11.8754C447.744 10.7046 447.908 9.6537 448.235 8.72269C448.563 7.78462 449.022 6.98762 449.613 6.33168C450.211 5.67574 450.92 5.17497 451.738 4.82937C452.557 4.47671 453.461 4.30039 454.451 4.30039C455.441 4.30039 456.345 4.47671 457.164 4.82937C457.983 5.17497 458.687 5.67574 459.278 6.33168C459.877 6.98762 460.339 7.78462 460.667 8.72269C460.994 9.6537 461.158 10.7046 461.158 11.8754ZM457.644 12.5631V11.8543C457.644 11.0714 457.573 10.3802 457.431 9.78066C457.288 9.17409 457.082 8.66626 456.811 8.25718C456.541 7.8481 456.206 7.54129 455.807 7.33675C455.409 7.12516 454.957 7.01936 454.451 7.01936C453.924 7.01936 453.465 7.12516 453.073 7.33675C452.682 7.54129 452.351 7.8481 452.08 8.25718C451.817 8.66626 451.614 9.17409 451.471 9.78066C451.336 10.3802 451.268 11.0714 451.268 11.8543V12.5631C451.268 13.339 451.336 14.0302 451.471 14.6367C451.614 15.2362 451.82 15.7441 452.091 16.1602C452.361 16.5763 452.692 16.8902 453.084 17.1018C453.483 17.3134 453.946 17.4192 454.472 17.4192C454.978 17.4192 455.427 17.3134 455.818 17.1018C456.217 16.8902 456.551 16.5763 456.822 16.1602C457.093 15.7441 457.296 15.2362 457.431 14.6367C457.573 14.0302 457.644 13.339 457.644 12.5631ZM455.402 0.385906L458.766 3.34821V3.47517H456.128L454.44 1.98344L452.764 3.47517H450.179V3.3059L453.479 0.385906H455.402ZM452.657 22.381C452.657 21.9508 452.828 21.5911 453.169 21.3019C453.511 21.0127 453.96 20.8682 454.515 20.8682C455.07 20.8682 455.519 21.0127 455.861 21.3019C456.21 21.5911 456.384 21.9508 456.384 22.381C456.384 22.8042 456.21 23.1569 455.861 23.439C455.519 23.7282 455.07 23.8728 454.515 23.8728C453.96 23.8728 453.511 23.7282 453.169 23.439C452.828 23.1569 452.657 22.8042 452.657 22.381Z" fill="#121332"/>
<path d="M467 4.51198V19.916H463.529V4.51198H467Z" fill="#121332"/>
</svg>
