<svg width="109" height="34" viewBox="0 0 109 34" fill="none" xmlns="http://www.w3.org/2000/svg">
<path d="M94.4477 16.3751L90.5488 14.5558C90.2085 14.3979 89.9291 14.5749 89.9291 14.9516V18.3784C89.9291 18.7551 90.2085 18.9321 90.5488 18.7742L94.446 16.9549C94.788 16.7952 94.788 16.5348 94.4477 16.3751ZM91.665 0C82.4611 0 75 7.46106 75 16.665C75 25.8689 82.4611 33.33 91.665 33.33C100.869 33.33 108.33 25.8689 108.33 16.665C108.33 7.46106 100.869 0 91.665 0ZM91.665 23.4352C83.1346 23.4352 82.9853 22.6661 82.9853 16.665C82.9853 10.6639 83.1346 9.89484 91.665 9.89484C100.195 9.89484 100.345 10.6639 100.345 16.665C100.345 22.6661 100.195 23.4352 91.665 23.4352Z" fill="white"/>
<path d="M33.3333 16.6667C33.3333 7.46667 25.8667 0 16.6667 0C7.46667 0 0 7.46667 0 16.6667C0 24.7333 5.73333 31.45 13.3333 33V21.6667H10V16.6667H13.3333V12.5C13.3333 9.28333 15.95 6.66667 19.1667 6.66667H23.3333V11.6667H20C19.0833 11.6667 18.3333 12.4167 18.3333 13.3333V16.6667H23.3333V21.6667H18.3333V33.25C26.75 32.4167 33.3333 25.3167 33.3333 16.6667Z" fill="white"/>
</svg>
