<svg width="2089" height="386" viewBox="0 0 2089 386" fill="none" xmlns="http://www.w3.org/2000/svg">
<path d="M1855.77 55.6839L1855.7 56.1118H1855.27H1788.88C1787.53 56.1118 1786.34 56.3671 1785.5 56.7582C1784.62 57.1683 1784.3 57.635 1784.3 57.9783C1784.3 58.3216 1784.62 58.7882 1785.5 59.1983C1786.34 59.5894 1787.53 59.8447 1788.88 59.8447H1807.51H1807.93L1808 60.2676C1809.47 69.6557 1811.35 79.0504 1814.75 86.1028C1816.18 89.0635 1818.21 92.4688 1821.53 95.1358C1824.83 97.7948 1829.46 99.7471 1836.12 99.7471C1843.36 99.7471 1848.3 97.3863 1851.78 94.1639C1855.28 90.9287 1857.34 86.7953 1858.77 83.2019C1861.32 76.7454 1862.93 68.6811 1864.25 60.2674L1864.32 59.8447H1864.74H1881.41C1882.75 59.8447 1883.95 59.5894 1884.79 59.1983C1885.67 58.7882 1885.99 58.3216 1885.99 57.9783C1885.99 57.635 1885.67 57.1683 1884.79 56.7582C1883.95 56.3671 1882.75 56.1118 1881.41 56.1118H1865.45H1864.88L1864.96 55.54C1865.21 53.8463 1865.45 52.1035 1865.7 50.33C1867.28 39.0384 1869.03 26.5069 1872.58 17.5356C1874.93 11.6124 1877.66 8.28007 1880.15 6.42942C1882.64 4.57558 1884.87 4.23292 1886.16 4.23292C1887.19 4.23292 1889.37 4.5456 1891.9 6.69C1894.43 8.82751 1897.28 12.7617 1899.73 19.9541C1903.24 30.2786 1904.92 44.1346 1906.6 57.9694L1906.62 58.1712C1908.31 72.109 1910 86.0099 1913.55 96.4204C1915.07 100.91 1917.16 105.67 1920.65 109.305C1924.12 112.923 1929.01 115.456 1936.2 115.456C1941.75 115.456 1946.1 113.953 1949.56 111.245C1953.03 108.531 1955.65 104.578 1957.71 99.6184C1961.84 89.6787 1963.64 75.8524 1965.53 60.2842L1965.58 59.8444H1966.02H2007.66H2008.09L2008.15 60.2671C2009.47 68.6811 2011.08 76.7454 2013.63 83.2016C2015.06 86.7951 2017.12 90.9285 2020.62 94.1637C2024.1 97.3861 2029.04 99.7468 2036.28 99.7468C2042.58 99.7468 2046.93 97.9502 2049.9 95.8799C2052.87 93.8057 2054.48 91.44 2055.28 90.2497L2055.69 90.5244L2055.28 90.2497C2058.38 85.6962 2060.72 79.3152 2062.64 70.1153C2062.71 69.7965 2062.52 69.3557 2061.75 68.9201C2061.01 68.5015 2059.89 68.1934 2058.54 68.1326C2057.2 68.0724 2055.95 68.272 2055.02 68.6284C2054.05 69.0005 2053.59 69.4767 2053.51 69.8617C2051.65 78.7734 2049.41 84.995 2046.43 89.3833L2046.43 89.3833C2045.6 90.6037 2044.3 92.2513 2042.6 93.5979C2040.9 94.9451 2038.76 96.0139 2036.28 96.0139C2034.98 96.0139 2032.76 95.6712 2030.26 93.8174C2027.77 91.9667 2025.04 88.6344 2022.7 82.7112C2020.21 76.4485 2018.64 68.5829 2017.35 60.4227L2017.26 59.8447H2017.84H2083.52C2084.87 59.8447 2086.06 59.5894 2086.9 59.1983C2087.78 58.7882 2088.1 58.3216 2088.1 57.9783C2088.1 57.635 2087.78 57.1683 2086.9 56.7582C2086.06 56.3671 2084.87 56.1118 2083.52 56.1118H2017.13H2016.7L2016.63 55.6839C2016.36 53.8265 2016.1 51.9567 2015.84 50.0859C2014.14 38.0873 2012.45 26.0525 2008.88 17.0452L2009.33 16.8646L2008.88 17.0452C2007.46 13.4518 2005.39 9.31842 2001.9 6.08321C1998.41 2.86075 1993.48 0.5 1986.24 0.5C1978.64 0.5 1973.56 3.2793 1969.97 7.40027C1966.35 11.5455 1964.22 17.0779 1962.61 22.6208C1962.52 22.9375 1962.67 23.3651 1963.39 23.8058C1964.09 24.2329 1965.18 24.5603 1966.52 24.6446C1967.85 24.7279 1969.12 24.5508 1970.08 24.2094C1970.56 24.0387 1970.95 23.8325 1971.23 23.6106C1971.52 23.3873 1971.66 23.1688 1971.72 22.9765L1971.72 22.9764C1974.21 14.3957 1977.25 9.70815 1979.97 7.16264C1982.7 4.60693 1985.1 4.23292 1986.24 4.23292C1987.53 4.23292 1989.75 4.57557 1992.25 6.42945C1994.74 8.28014 1997.47 11.6126 1999.82 17.5359C2003.37 26.5132 2005.16 39.3227 2006.72 50.465C2006.97 52.2043 2007.2 53.9029 2007.44 55.54L2007.52 56.1118H2006.95H1966.59H1966.03L1966.1 55.5515C1966.97 48.3299 1967.91 40.9691 1969.13 34.2944C1969.19 33.974 1968.98 33.5293 1968.2 33.0959C1967.45 32.6803 1966.31 32.3785 1964.97 32.3252C1963.63 32.2719 1962.38 32.4784 1961.46 32.8394C1960.5 33.2165 1960.06 33.6926 1959.99 34.0723C1958.75 40.8603 1957.8 48.3293 1956.91 55.672L1956.86 56.1118H1956.42H1915.98H1915.54L1915.49 55.6721C1913.9 42.6368 1912.19 29.4512 1908.82 19.5358C1907.29 15.0458 1905.2 10.2866 1901.71 6.65087C1898.24 3.03357 1893.35 0.5 1886.16 0.5C1879.94 0.5 1875.21 2.24051 1871.54 5.2429C1867.86 8.25298 1865.2 12.563 1863.19 17.7639C1859.82 26.4616 1858.29 37.5196 1856.72 48.8853C1856.41 51.1447 1856.1 53.4163 1855.77 55.6839ZM1955.84 59.8447H1956.41L1956.34 60.405C1954.78 73.2104 1953.08 86.2644 1949.77 96.0021C1947.32 103.195 1944.47 107.129 1941.94 109.266C1939.41 111.411 1937.23 111.724 1936.2 111.724C1935.17 111.724 1932.99 111.411 1930.46 109.266C1927.93 107.129 1925.08 103.195 1922.63 96.0021C1919.32 86.2641 1917.61 73.2104 1916.06 60.405L1915.99 59.8447H1916.56H1955.84ZM1854.55 59.845H1855.14L1855.05 60.4229C1853.76 68.5832 1852.19 76.4491 1849.7 82.7115C1846.45 90.9385 1841.83 95.4844 1836.97 95.9698C1832.07 96.4583 1827.29 92.8117 1823.76 85.5001C1820.47 78.6767 1818.63 69.5091 1817.2 60.4227L1817.11 59.845H1817.69H1854.55Z" stroke="#F0D800"/>
<path d="M5.67991 325.612H72.0704C76.0424 298.351 77.6768 270 102.961 270C117.618 270 123.021 280.354 126.09 289.375C129.483 299.349 131.202 312.589 132.782 325.612H173.216C174.107 318.27 175.05 310.787 176.296 303.982C176.534 302.68 178.987 301.714 181.789 301.826C184.584 301.937 186.657 303.082 186.419 304.384C185.201 311.042 184.27 318.389 183.393 325.612H223.745C221.979 313.446 220.236 298.028 216.152 287.72C211.509 275.998 205.433 274.733 203.037 274.733C200.996 274.733 193.955 276.058 189.001 293.116C188.625 294.411 186.068 295.318 183.286 295.144C180.506 294.968 178.557 293.776 178.933 292.481C182.162 281.364 187.55 270 203.037 270C217.761 270 223.276 279.623 226.143 286.861C230.296 297.343 231.928 311.881 233.928 325.612H300.32C303.125 325.612 305.4 326.671 305.4 327.978C305.4 329.285 303.125 330.345 300.32 330.345H234.644C235.932 338.501 237.501 346.32 239.96 352.527C244.604 364.248 250.679 365.514 253.075 365.514C257.756 365.514 261.184 361.497 262.812 359.102C265.739 354.794 267.966 348.648 269.819 339.76C270.09 338.459 272.567 337.507 275.366 337.633C278.158 337.76 280.202 338.917 279.931 340.217C278.008 349.444 275.646 355.898 272.498 360.531C270.865 362.934 265.896 370.247 253.076 370.247C238.352 370.247 232.837 360.624 229.97 353.386C227.39 346.874 225.777 338.763 224.458 330.344H182.821C179.048 361.437 175.605 385.956 153.001 385.956C138.344 385.956 132.942 375.602 129.873 366.581C122.749 345.641 123.074 310.744 116.057 290.115C111.199 275.842 104.806 274.733 102.961 274.733C100.565 274.733 94.4897 275.998 89.8466 287.72C85.7617 298.03 84.07 313.094 82.2539 325.612H98.2058C101.011 325.612 103.286 326.671 103.286 327.978C103.286 329.285 101.011 330.345 98.2058 330.345H81.5427C80.2245 338.763 78.6109 346.874 76.0309 353.386C73.1633 360.624 67.6489 370.247 52.9245 370.247C39.3775 370.247 33.9806 362.299 31.099 356.32C27.6649 349.194 25.7713 339.732 24.3057 330.345H5.67991C2.87448 330.345 0.599907 329.285 0.599907 327.978C0.599907 326.671 2.87448 325.612 5.67991 325.612V325.612ZM152.999 381.224C154.843 381.224 161.237 380.114 166.093 365.841C169.386 356.162 171.087 343.163 172.644 330.345H133.355C134.912 343.163 136.613 356.162 139.906 365.841C144.761 380.114 151.155 381.224 152.999 381.224V381.224ZM41.0132 355.283C47.9976 369.776 59.5616 368.88 66.0398 352.527C68.4992 346.32 70.0683 338.501 71.3548 330.345H34.4937C35.9224 339.433 37.7595 348.533 41.0132 355.283V355.283Z" fill="#F0D800"/>
</svg>
