<svg width="475" height="30" viewBox="0 0 475 30" fill="none" xmlns="http://www.w3.org/2000/svg">
<path d="M72.6939 10.476V26.3673H69.0419V10.476H72.6939ZM77.6719 10.476V13.2373H64.165V10.476H77.6719Z" fill="#121332"/>
<path d="M90.4596 16.8718V19.6222H81.9869V16.8718H90.4596ZM83.1443 10.476V26.3673H79.481V10.476H83.1443ZM92.9879 10.476V26.3673H89.3359V10.476H92.9879Z" fill="#121332"/>
<path d="M110.484 9.59189H112.698C112.698 10.6761 112.555 11.6038 112.271 12.3751C111.993 13.1391 111.506 13.7212 110.81 14.1214C110.121 14.5215 109.154 14.7216 107.911 14.7216V12.9863C108.72 12.9863 109.304 12.8516 109.664 12.5824C110.023 12.3059 110.248 11.9167 110.338 11.4146C110.435 10.9053 110.484 10.2977 110.484 9.59189ZM104.663 10.476H108.326V20.9101C108.326 22.1471 108.057 23.1876 107.517 24.0316C106.985 24.8756 106.244 25.5123 105.292 25.9416C104.341 26.3709 103.24 26.5856 101.989 26.5856C100.73 26.5856 99.6214 26.3709 98.6625 25.9416C97.7111 25.5123 96.962 24.8756 96.4151 24.0316C95.8758 23.1876 95.6061 22.1471 95.6061 20.9101V10.476H99.2806V20.9101C99.2806 21.5941 99.3855 22.1543 99.5952 22.5909C99.8125 23.0202 100.123 23.3367 100.528 23.5405C100.932 23.7369 101.419 23.8351 101.989 23.8351C102.558 23.8351 103.041 23.7369 103.438 23.5405C103.843 23.3367 104.146 23.0202 104.348 22.5909C104.558 22.1543 104.663 21.5941 104.663 20.9101V10.476ZM100.82 9.48275L103.045 6.08838H106.798L103.685 9.48275H100.82Z" fill="#121332"/>
<path d="M128.901 10.476V12.3096L122.676 26.3673H118.968L125.193 13.1281H117.215V10.476H128.901Z" fill="#121332"/>
<path d="M143.644 18.2033V20.8664H137.104V18.2033H143.644Z" fill="#121332"/>
<path d="M165.882 10.476V26.3673H162.23L156.05 16.0969V26.3673H152.387V10.476H156.05L162.241 20.7464V10.476H165.882Z" fill="#121332"/>
<path d="M181.771 17.9741V24.3809C181.501 24.6792 181.089 24.9993 180.535 25.3413C179.988 25.6833 179.288 25.978 178.434 26.2254C177.58 26.4655 176.561 26.5856 175.377 26.5856C174.306 26.5856 173.332 26.4182 172.456 26.0835C171.579 25.7415 170.826 25.2431 170.197 24.5882C169.568 23.9261 169.081 23.1184 168.736 22.1652C168.399 21.2121 168.231 20.1206 168.231 18.8909V17.9523C168.231 16.7226 168.399 15.6312 168.736 14.678C169.073 13.7248 169.549 12.9208 170.163 12.2659C170.778 11.6038 171.508 11.1017 172.355 10.7597C173.201 10.4177 174.138 10.2468 175.164 10.2468C176.625 10.2468 177.82 10.476 178.748 10.9344C179.677 11.3855 180.382 12.0112 180.861 12.8116C181.348 13.612 181.648 14.5325 181.76 15.573H178.232C178.157 15.0418 178.007 14.5834 177.782 14.1978C177.565 13.8121 177.254 13.5174 176.849 13.3137C176.445 13.1027 175.92 12.9972 175.276 12.9972C174.759 12.9972 174.291 13.1027 173.872 13.3137C173.46 13.5174 173.111 13.8267 172.827 14.2414C172.542 14.6562 172.325 15.1728 172.175 15.7913C172.025 16.4025 171.95 17.1155 171.95 17.9305V18.8909C171.95 19.7059 172.025 20.4226 172.175 21.0411C172.332 21.6595 172.561 22.1762 172.86 22.5909C173.16 22.9984 173.538 23.3076 173.995 23.5186C174.46 23.7296 174.999 23.8351 175.613 23.8351C176.093 23.8351 176.497 23.7988 176.827 23.726C177.157 23.646 177.426 23.5477 177.636 23.4313C177.846 23.3076 178.003 23.1948 178.108 23.093V20.4517H175.198V17.9741H181.771Z" fill="#121332"/>
<path d="M191.075 13.4992L186.85 26.3673H182.94L188.997 10.476H191.469L191.075 13.4992ZM194.581 26.3673L190.345 13.4992L189.907 10.476H192.413L198.492 26.3673H194.581ZM194.402 20.4517V23.2021H185.873V20.4517H194.402ZM190.21 6.21935L192.435 9.61372H189.57L186.446 6.21935H190.21Z" fill="#121332"/>
<path d="M200.897 10.476L204.099 17.5485L207.324 10.476H211.279L205.964 20.6263V26.3673H202.245V20.6263L196.919 10.476H200.897Z" fill="#121332"/>
<path d="M226.225 10.465V26.3673H222.707V14.3506L218.909 15.4747V12.8335L225.876 10.465H226.225Z" fill="#121332"/>
<path d="M234.506 19.2075L231.72 18.5635L232.675 10.476H242.046V13.1718H235.551L235.158 16.5225C235.36 16.4061 235.679 16.2788 236.113 16.1405C236.548 15.995 237.035 15.9222 237.574 15.9222C238.376 15.9222 239.087 16.0423 239.709 16.2824C240.331 16.5225 240.855 16.8718 241.282 17.3302C241.717 17.7813 242.043 18.3379 242.26 19.0001C242.485 19.6622 242.597 20.4153 242.597 21.2594C242.597 21.9579 242.485 22.6273 242.26 23.2676C242.035 23.9006 241.69 24.4682 241.226 24.9702C240.769 25.465 240.188 25.8579 239.484 26.149C238.78 26.44 237.952 26.5856 237.001 26.5856C236.282 26.5856 235.585 26.4801 234.911 26.269C234.237 26.058 233.63 25.7524 233.09 25.3522C232.559 24.9448 232.135 24.45 231.821 23.8679C231.514 23.2858 231.356 22.6309 231.349 21.9033H234.855C234.892 22.3253 235.001 22.6891 235.181 22.9947C235.36 23.2931 235.604 23.5259 235.911 23.6933C236.218 23.8533 236.574 23.9334 236.978 23.9334C237.368 23.9334 237.698 23.8606 237.967 23.7151C238.237 23.5623 238.45 23.3549 238.608 23.093C238.773 22.831 238.892 22.5254 238.967 22.1762C239.042 21.8269 239.08 21.4522 239.08 21.052C239.08 20.6372 239.031 20.2661 238.934 19.9387C238.836 19.604 238.686 19.3202 238.484 19.0874C238.282 18.8473 238.023 18.6654 237.709 18.5417C237.402 18.4107 237.031 18.3452 236.596 18.3452C236.027 18.3452 235.581 18.4362 235.259 18.6181C234.937 18.8 234.686 18.9964 234.506 19.2075Z" fill="#121332"/>
<path d="M257.654 10.476V26.3673H254.002V10.476H257.654ZM262.632 10.476V13.2373H249.126V10.476H262.632Z" fill="#121332"/>
<path d="M275.42 16.8718V19.6222H266.947V16.8718H275.42ZM268.105 10.476V26.3673H264.442V10.476H268.105ZM277.948 10.476V26.3673H274.296V10.476H277.948Z" fill="#121332"/>
<path d="M287.668 13.4992L283.443 26.3673H279.533L285.59 10.476H288.062L287.668 13.4992ZM291.174 26.3673L286.938 13.4992L286.5 10.476H289.006L295.085 26.3673H291.174ZM290.995 20.4517V23.2021H282.466V20.4517H290.995ZM285.691 9.61372L287.916 6.21935H291.669L288.556 9.61372H285.691Z" fill="#121332"/>
<path d="M309.94 10.476V26.3673H306.288L300.108 16.0969V26.3673H296.444V10.476H300.108L306.299 20.7464V10.476H309.94Z" fill="#121332"/>
<path d="M325.829 17.9741V24.3809C325.559 24.6792 325.147 24.9993 324.593 25.3413C324.046 25.6833 323.346 25.978 322.492 26.2254C321.638 26.4655 320.619 26.5856 319.435 26.5856C318.364 26.5856 317.39 26.4182 316.514 26.0835C315.637 25.7415 314.884 25.2431 314.255 24.5882C313.626 23.9261 313.139 23.1184 312.794 22.1652C312.457 21.2121 312.289 20.1206 312.289 18.8909V17.9523C312.289 16.7226 312.457 15.6312 312.794 14.678C313.131 13.7248 313.607 12.9208 314.221 12.2659C314.836 11.6038 315.566 11.1017 316.413 10.7597C317.259 10.4177 318.196 10.2468 319.222 10.2468C320.683 10.2468 321.877 10.476 322.806 10.9344C323.735 11.3855 324.44 12.0112 324.919 12.8116C325.406 13.612 325.706 14.5325 325.818 15.573H322.29C322.215 15.0418 322.065 14.5834 321.84 14.1978C321.623 13.8121 321.312 13.5174 320.907 13.3137C320.503 13.1027 319.978 12.9972 319.334 12.9972C318.817 12.9972 318.349 13.1027 317.93 13.3137C317.518 13.5174 317.169 13.8267 316.885 14.2414C316.6 14.6562 316.383 15.1728 316.233 15.7913C316.083 16.4025 316.008 17.1155 316.008 17.9305V18.8909C316.008 19.7059 316.083 20.4226 316.233 21.0411C316.39 21.6595 316.619 22.1762 316.918 22.5909C317.218 22.9984 317.596 23.3076 318.053 23.5186C318.518 23.7296 319.057 23.8351 319.671 23.8351C320.151 23.8351 320.555 23.7988 320.885 23.726C321.215 23.646 321.484 23.5477 321.694 23.4313C321.904 23.3076 322.061 23.1948 322.166 23.093V20.4517H319.256V17.9741H325.829Z" fill="#121332"/>
<path d="M344.966 17.0027V19.8296C344.966 20.9938 344.831 22.0015 344.561 22.8529C344.299 23.7042 343.917 24.4063 343.415 24.9593C342.921 25.5123 342.329 25.9234 341.64 26.1926C340.958 26.4546 340.201 26.5856 339.37 26.5856C338.703 26.5856 338.081 26.5019 337.504 26.3345C336.928 26.1672 336.407 25.9089 335.942 25.5596C335.485 25.2031 335.092 24.7592 334.763 24.2281C334.433 23.6969 334.178 23.0639 333.998 22.329C333.826 21.5941 333.74 20.7609 333.74 19.8296V17.0027C333.74 15.824 333.871 14.8126 334.133 13.9686C334.403 13.1245 334.789 12.426 335.291 11.873C335.793 11.32 336.384 10.9125 337.066 10.6506C337.755 10.3886 338.516 10.2577 339.347 10.2577C340.014 10.2577 340.632 10.3413 341.201 10.5087C341.778 10.6761 342.299 10.9344 342.763 11.2836C343.228 11.6329 343.621 12.0731 343.943 12.6043C344.273 13.1354 344.524 13.7685 344.696 14.5034C344.876 15.231 344.966 16.0641 344.966 17.0027ZM341.46 20.2552V16.5553C341.46 16.0095 341.426 15.5366 341.359 15.1364C341.299 14.7289 341.209 14.3833 341.089 14.0995C340.977 13.8158 340.834 13.5866 340.662 13.4119C340.49 13.2373 340.291 13.11 340.066 13.0299C339.849 12.9426 339.609 12.8989 339.347 12.8989C339.018 12.8989 338.722 12.9644 338.46 13.0954C338.197 13.2264 337.976 13.4337 337.797 13.7175C337.617 13.994 337.478 14.3687 337.381 14.8417C337.291 15.3074 337.246 15.8786 337.246 16.5553V20.2552C337.246 20.8009 337.276 21.2775 337.336 21.685C337.403 22.0925 337.493 22.4417 337.606 22.7328C337.725 23.0166 337.871 23.2494 338.044 23.4313C338.216 23.6059 338.415 23.7333 338.639 23.8133C338.864 23.8934 339.108 23.9334 339.37 23.9334C339.699 23.9334 339.991 23.8715 340.246 23.7478C340.501 23.6169 340.718 23.4095 340.898 23.1257C341.085 22.8347 341.224 22.4527 341.314 21.9797C341.411 21.5067 341.46 20.9319 341.46 20.2552Z" fill="#121332"/>
<path d="M358.619 20.2989V22.9402H346.842L346.651 20.8664L353.349 10.476H356.124L353.113 15.3219L350.067 20.2989H358.619ZM356.866 10.476V26.3673H353.36V10.476H356.866Z" fill="#121332"/>
<path d="M379.857 10.476V26.3673H376.205L370.024 16.0969V26.3673H366.361V10.476H370.024L376.216 20.7464V10.476H379.857Z" fill="#121332"/>
<path d="M389.565 13.4992L385.34 26.3673H381.43L387.486 10.476H389.959L389.565 13.4992ZM393.071 26.3673L388.835 13.4992L388.397 10.476H390.902L396.982 26.3673H393.071ZM392.891 20.4517V23.2021H384.363V20.4517H392.891ZM390.813 6.27392H393.262C393.262 6.91423 393.097 7.48178 392.768 7.97656C392.438 8.47135 391.97 8.85699 391.363 9.13349C390.764 9.40999 390.052 9.54823 389.228 9.54823C387.992 9.54823 387.011 9.24627 386.284 8.64234C385.557 8.03114 385.194 7.24166 385.194 6.27392H387.633C387.633 6.64501 387.752 6.97608 387.992 7.26713C388.239 7.5509 388.651 7.69279 389.228 7.69279C389.812 7.69279 390.221 7.5509 390.453 7.26713C390.693 6.97608 390.813 6.64501 390.813 6.27392Z" fill="#121332"/>
<path d="M400.094 10.476H403.128L407.061 21.8378L410.983 10.476H414.017L408.286 26.3673H405.825L400.094 10.476ZM398.341 10.476H401.432L402.005 22.2526V26.3673H398.341V10.476ZM412.68 10.476H415.781V26.3673H412.107V22.2526L412.68 10.476Z" fill="#121332"/>
<path d="M435.255 23.7151V26.3673H423.95V24.1189L429.232 18.6836C429.726 18.1306 430.119 17.6431 430.412 17.221C430.711 16.799 430.929 16.417 431.063 16.075C431.198 15.7258 431.266 15.4056 431.266 15.1146C431.266 14.6416 431.187 14.2414 431.03 13.914C430.88 13.5866 430.659 13.3355 430.367 13.1609C430.075 12.9863 429.719 12.8989 429.299 12.8989C428.85 12.8989 428.464 13.0117 428.142 13.2373C427.82 13.4629 427.572 13.7757 427.4 14.1759C427.228 14.5688 427.142 15.0163 427.142 15.5184H423.613C423.613 14.5507 423.853 13.6702 424.332 12.8771C424.812 12.0767 425.482 11.4401 426.344 10.9671C427.205 10.4869 428.213 10.2468 429.367 10.2468C430.55 10.2468 431.543 10.4287 432.344 10.7925C433.146 11.1563 433.753 11.6765 434.165 12.3532C434.577 13.0299 434.783 13.8449 434.783 14.798C434.783 15.3365 434.693 15.8567 434.513 16.3588C434.341 16.8609 434.09 17.3593 433.76 17.8541C433.431 18.3489 433.034 18.8546 432.569 19.3712C432.105 19.8805 431.58 20.4189 430.996 20.9865L428.524 23.7151H435.255Z" fill="#121332"/>
<path d="M448.413 17.0027V19.8296C448.413 20.9938 448.278 22.0015 448.009 22.8529C447.747 23.7042 447.364 24.4063 446.863 24.9593C446.368 25.5123 445.776 25.9234 445.087 26.1926C444.405 26.4546 443.649 26.5856 442.817 26.5856C442.151 26.5856 441.529 26.5019 440.952 26.3345C440.375 26.1672 439.854 25.9089 439.39 25.5596C438.933 25.2031 438.54 24.7592 438.21 24.2281C437.88 23.6969 437.626 23.0639 437.446 22.329C437.274 21.5941 437.188 20.7609 437.188 19.8296V17.0027C437.188 15.824 437.319 14.8126 437.581 13.9686C437.851 13.1245 438.236 12.426 438.738 11.873C439.24 11.32 439.832 10.9125 440.514 10.6506C441.203 10.3886 441.963 10.2577 442.795 10.2577C443.462 10.2577 444.08 10.3413 444.649 10.5087C445.226 10.6761 445.746 10.9344 446.211 11.2836C446.675 11.6329 447.069 12.0731 447.391 12.6043C447.72 13.1354 447.971 13.7685 448.144 14.5034C448.323 15.231 448.413 16.0641 448.413 17.0027ZM444.907 20.2552V16.5553C444.907 16.0095 444.874 15.5366 444.806 15.1364C444.746 14.7289 444.656 14.3833 444.537 14.0995C444.424 13.8158 444.282 13.5866 444.11 13.4119C443.937 13.2373 443.739 13.11 443.514 13.0299C443.297 12.9426 443.057 12.8989 442.795 12.8989C442.465 12.8989 442.169 12.9644 441.907 13.0954C441.645 13.2264 441.424 13.4337 441.244 13.7175C441.064 13.994 440.926 14.3687 440.828 14.8417C440.738 15.3074 440.693 15.8786 440.693 16.5553V20.2552C440.693 20.8009 440.723 21.2775 440.783 21.685C440.851 22.0925 440.941 22.4417 441.053 22.7328C441.173 23.0166 441.319 23.2494 441.491 23.4313C441.664 23.6059 441.862 23.7333 442.087 23.8133C442.312 23.8934 442.555 23.9334 442.817 23.9334C443.147 23.9334 443.439 23.8715 443.694 23.7478C443.948 23.6169 444.166 23.4095 444.345 23.1257C444.533 22.8347 444.671 22.4527 444.761 21.9797C444.859 21.5067 444.907 20.9319 444.907 20.2552Z" fill="#121332"/>
<path d="M461.819 23.7151V26.3673H450.515V24.1189L455.796 18.6836C456.29 18.1306 456.684 17.6431 456.976 17.221C457.276 16.799 457.493 16.417 457.628 16.075C457.762 15.7258 457.83 15.4056 457.83 15.1146C457.83 14.6416 457.751 14.2414 457.594 13.914C457.444 13.5866 457.223 13.3355 456.931 13.1609C456.639 12.9863 456.283 12.8989 455.863 12.8989C455.414 12.8989 455.028 13.0117 454.706 13.2373C454.384 13.4629 454.137 13.7757 453.964 14.1759C453.792 14.5688 453.706 15.0163 453.706 15.5184H450.177C450.177 14.5507 450.417 13.6702 450.897 12.8771C451.376 12.0767 452.047 11.4401 452.908 10.9671C453.77 10.4869 454.777 10.2468 455.931 10.2468C457.114 10.2468 458.107 10.4287 458.909 10.7925C459.71 11.1563 460.317 11.6765 460.729 12.3532C461.141 13.0299 461.347 13.8449 461.347 14.798C461.347 15.3365 461.257 15.8567 461.077 16.3588C460.905 16.8609 460.654 17.3593 460.324 17.8541C459.995 18.3489 459.598 18.8546 459.133 19.3712C458.669 19.8805 458.144 20.4189 457.56 20.9865L455.088 23.7151H461.819Z" fill="#121332"/>
<path d="M467.179 16.97H468.966C469.475 16.97 469.895 16.8827 470.224 16.7081C470.561 16.5334 470.809 16.286 470.966 15.9659C471.131 15.6457 471.213 15.271 471.213 14.8417C471.213 14.4706 471.138 14.1395 470.988 13.8485C470.839 13.5574 470.61 13.3282 470.303 13.1609C470.003 12.9863 469.614 12.8989 469.134 12.8989C468.79 12.8989 468.46 12.9681 468.145 13.1063C467.838 13.2373 467.587 13.4301 467.393 13.6848C467.198 13.9322 467.1 14.2305 467.1 14.5798H463.583C463.583 13.6921 463.83 12.9244 464.325 12.2768C464.827 11.6292 465.49 11.1308 466.314 10.7816C467.145 10.425 468.052 10.2468 469.033 10.2468C470.164 10.2468 471.157 10.4214 472.011 10.7706C472.872 11.1126 473.539 11.622 474.011 12.2987C474.491 12.9681 474.73 13.7976 474.73 14.7871C474.73 15.3037 474.603 15.8022 474.348 16.2824C474.101 16.7554 473.745 17.1774 473.281 17.5485C472.824 17.9123 472.277 18.2033 471.64 18.4216C471.011 18.6326 470.31 18.7381 469.539 18.7381H467.179V16.97ZM467.179 19.5349V17.7995H469.539C470.393 17.7995 471.157 17.8941 471.831 18.0833C472.505 18.2725 473.078 18.5453 473.55 18.9018C474.022 19.2584 474.382 19.6913 474.629 20.2007C474.876 20.71 475 21.2775 475 21.9033C475 22.6455 474.85 23.3076 474.55 23.8897C474.251 24.4718 473.831 24.963 473.292 25.3632C472.753 25.7633 472.12 26.069 471.393 26.28C470.666 26.4837 469.88 26.5856 469.033 26.5856C468.351 26.5856 467.673 26.4946 466.999 26.3127C466.325 26.1308 465.714 25.8543 465.168 25.4832C464.621 25.1048 464.182 24.6283 463.853 24.0534C463.523 23.4713 463.358 22.7801 463.358 21.9797H466.876C466.876 22.3508 466.973 22.6855 467.168 22.9838C467.37 23.2749 467.643 23.5077 467.988 23.6823C468.34 23.8497 468.722 23.9334 469.134 23.9334C469.629 23.9334 470.048 23.8461 470.393 23.6714C470.745 23.4895 471.011 23.2421 471.191 22.9293C471.378 22.6164 471.472 22.2562 471.472 21.8487C471.472 21.2957 471.37 20.8519 471.168 20.5172C470.973 20.1752 470.689 19.9278 470.314 19.775C469.94 19.6149 469.49 19.5349 468.966 19.5349H467.179Z" fill="#121332"/>
<path d="M12.4765 17.8519C12.0838 17.8519 11.7543 17.715 11.4881 17.4412C11.222 17.1675 11.0893 16.8291 11.0903 16.426C11.0903 16.022 11.2233 15.6831 11.4895 15.4094C11.7557 15.1356 12.0847 14.9992 12.4765 15.0001C12.8693 15.0001 13.1988 15.137 13.465 15.4108C13.7311 15.6845 13.8638 16.023 13.8628 16.426C13.8628 16.83 13.7297 17.1689 13.4636 17.4427C13.1974 17.7164 12.8684 17.8529 12.4765 17.8519ZM6.93142 17.8519C6.53864 17.8519 6.20916 17.715 5.943 17.4412C5.67683 17.1675 5.54421 16.8291 5.54513 16.426C5.54513 16.022 5.67822 15.6831 5.94438 15.4094C6.21055 15.1356 6.53956 14.9992 6.93142 15.0001C7.3242 15.0001 7.65367 15.137 7.91984 15.4108C8.186 15.6845 8.31862 16.023 8.3177 16.426C8.3177 16.83 8.18462 17.1689 7.91845 17.4427C7.65228 17.7164 7.32327 17.8529 6.93142 17.8519ZM18.0217 17.8519C17.6289 17.8519 17.2994 17.715 17.0333 17.4412C16.7671 17.1675 16.6345 16.8291 16.6354 16.426C16.6354 16.022 16.7685 15.6831 17.0346 15.4094C17.3008 15.1356 17.6298 14.9992 18.0217 15.0001C18.4145 15.0001 18.7439 15.137 19.0101 15.4108C19.2763 15.6845 19.4089 16.023 19.408 16.426C19.408 16.83 19.2749 17.1689 19.0087 17.4427C18.7425 17.7164 18.4135 17.8529 18.0217 17.8519ZM12.4765 23.5555C12.0838 23.5555 11.7543 23.4186 11.4881 23.1448C11.222 22.871 11.0893 22.5326 11.0903 22.1296C11.0903 21.7256 11.2233 21.3867 11.4895 21.1129C11.7557 20.8391 12.0847 20.7027 12.4765 20.7037C12.8693 20.7037 13.1988 20.8406 13.465 21.1143C13.7311 21.3881 13.8638 21.7265 13.8628 22.1296C13.8628 22.5336 13.7297 22.8725 13.4636 23.1462C13.1974 23.42 12.8684 23.5564 12.4765 23.5555ZM6.93142 23.5555C6.53864 23.5555 6.20916 23.4186 5.943 23.1448C5.67683 22.871 5.54421 22.5326 5.54513 22.1296C5.54513 21.7256 5.67822 21.3867 5.94438 21.1129C6.21055 20.8391 6.53956 20.7027 6.93142 20.7037C7.3242 20.7037 7.65367 20.8406 7.91984 21.1143C8.186 21.3881 8.31862 21.7265 8.3177 22.1296C8.3177 22.5336 8.18462 22.8725 7.91845 23.1462C7.65228 23.42 7.32327 23.5564 6.93142 23.5555ZM18.0217 23.5555C17.6289 23.5555 17.2994 23.4186 17.0333 23.1448C16.7671 22.871 16.6345 22.5326 16.6354 22.1296C16.6354 21.7256 16.7685 21.3867 17.0346 21.1129C17.3008 20.8391 17.6298 20.7027 18.0217 20.7037C18.4145 20.7037 18.7439 20.8406 19.0101 21.1143C19.2763 21.3881 19.4089 21.7265 19.408 22.1296C19.408 22.5336 19.2749 22.8725 19.0087 23.1462C18.7425 23.42 18.4135 23.5564 18.0217 23.5555ZM2.77257 29.259C2.01011 29.259 1.35717 28.9796 0.81375 28.4206C0.270327 27.8617 -0.000921835 27.1905 2.35362e-06 26.4072V6.44478C2.35362e-06 5.66054 0.271714 4.98894 0.815137 4.42999C1.35856 3.87104 2.01104 3.59204 2.77257 3.59299H4.15885V0.741211H6.93142V3.59299H18.0217V0.741211H20.7942V3.59299H22.1805C22.943 3.59299 23.5959 3.87247 24.1393 4.43142C24.6828 4.99037 24.954 5.66149 24.9531 6.44478V26.4072C24.9531 27.1915 24.6814 27.8631 24.138 28.422C23.5945 28.981 22.9421 29.26 22.1805 29.259H2.77257ZM2.77257 26.4072H22.1805V12.1483H2.77257V26.4072Z" fill="#121332"/>
</svg>
